<svg width="112" height="103" viewBox="0 0 112 103" fill="none" xmlns="http://www.w3.org/2000/svg">
<path d="M42.3284 69.8847C43.7968 70.7397 45.364 71.4122 46.9953 71.8874V77.3816C46.9953 79.2867 48.5471 80.8314 50.4505 80.8314L55.1111 80.8314L55.1166 80.8313C56.0288 80.8263 56.9029 80.4651 57.5525 79.8247C58.2022 79.1843 58.576 78.3154 58.5945 77.4034L58.5947 77.3933V77.3832V71.8971C60.1735 71.4389 61.6914 70.7921 63.1155 69.9708L66.6103 73.4928C66.6104 73.493 66.6106 73.4931 66.6107 73.4933C67.9128 74.8066 70.1536 74.8217 71.4876 73.5141L71.4876 73.5141L71.4934 73.5083L74.7937 70.2194C74.7941 70.219 74.7945 70.2186 74.795 70.2182C75.4472 69.5717 75.8141 68.7056 75.8141 67.7866C75.8141 66.8663 75.4685 65.9921 74.8174 65.3458C74.8163 65.3447 74.8152 65.3436 74.8141 65.3426L71.1438 61.6432C71.8177 60.3762 72.3512 59.0589 72.7328 57.7239H78.2321C80.1365 57.7239 81.681 56.1735 81.681 54.2694V49.6135C81.681 47.7117 80.1357 46.1621 78.2321 46.1621H72.7335C72.2778 44.579 71.6339 43.0562 70.8156 41.6264L74.9198 37.5458C74.9199 37.5457 74.92 37.5457 74.92 37.5456C75.5732 36.8964 75.9406 36.029 75.9406 35.1094C75.9406 34.1896 75.5907 33.3162 74.9406 32.667C74.9399 32.6662 74.9391 32.6655 74.9384 32.6647L71.654 29.3538L71.6469 29.3467L71.6398 29.3398C70.9888 28.7093 70.119 28.3557 69.2128 28.3532C68.3067 28.3507 67.4349 28.6996 66.7805 29.3265L66.7744 29.3324L66.7684 29.3384L62.4836 33.5853C61.2368 32.9232 59.9251 32.3913 58.5694 31.998V26.506C58.5694 24.6043 57.0241 23.0547 55.1205 23.0547H50.4536C48.5505 23.0547 47.0048 24.6023 47.0048 26.506V31.9959C45.6855 32.3747 44.4176 32.883 43.2277 33.5073L38.9798 29.2198L38.9798 29.2198L38.9761 29.2161C37.6704 27.9121 35.428 27.8933 34.0981 29.2012L34.0981 29.2012L34.0938 29.2055L30.794 32.4907C30.4707 32.8079 30.2136 33.1862 30.0374 33.6035C29.8611 34.0214 29.7695 34.4701 29.768 34.9236C29.7645 35.3781 29.8512 35.8287 30.0231 36.2495C30.1951 36.6704 30.4489 37.053 30.7698 37.3751C30.7704 37.3756 30.7709 37.3762 30.7715 37.3767L34.8466 41.4952C33.9923 42.962 33.3202 44.5277 32.845 46.1574H27.3532C25.4491 46.1574 23.9043 47.7074 23.9043 49.6103V54.2742C23.9043 56.1769 25.4482 57.7283 27.3528 57.735H27.3563H32.8407C33.2083 59.0111 33.7153 60.2759 34.3515 61.5037L30.65 65.1774L30.6492 65.1783C30.0015 65.8226 29.6358 66.6975 29.632 67.6111C29.6283 68.5247 29.9868 69.4026 30.6291 70.0522L30.6308 70.0539L33.9239 73.3687L33.9279 73.3727C35.2453 74.6839 37.4705 74.6964 38.8041 73.387L38.8083 73.3828L42.3284 69.8847Z" fill="white" stroke="#6C60B7" stroke-width="2"/>
<path d="M40.0698 51.5017C40.0698 58.2399 45.745 63.78 52.7908 63.78C59.8367 63.78 65.5136 58.2416 65.5155 51.5017H40.0698ZM40.0698 51.5017C40.0698 44.7597 45.747 39.2197 52.7908 39.2197M40.0698 51.5017L52.7908 39.2197M52.7908 39.2197C59.8366 39.2197 65.5153 44.7616 65.5155 51.5014L52.7908 39.2197Z" stroke="#6C60B7" stroke-width="2"/>
<path fill-rule="evenodd" clip-rule="evenodd" d="M9.78262 51.5064C9.78262 28.6589 29.1591 9.78262 53.3232 9.78262C76.9741 9.78262 96.0398 27.8613 96.8501 50.0362H91.7536L101.268 61.3805L110.783 50.0362H105.638C104.828 22.7134 81.5161 1 53.3232 1C24.6323 1 1 23.4909 1 51.5064C1 68.5211 9.75654 83.5357 23.0308 92.6591L28.0055 85.4212C16.9272 77.8071 9.78262 65.408 9.78262 51.5064ZM83.3078 81.7263C80.6183 84.1757 77.6023 86.3017 74.3283 88.0364L78.44 95.797C82.3649 93.7175 85.9865 91.1658 89.2214 88.2197L83.3078 81.7263ZM53.3232 93.2175C47.7944 93.2175 42.5137 92.2268 37.6572 90.426L34.6038 98.6608C40.4252 100.819 46.7391 102 53.3232 102C58.7259 102 63.9478 101.205 68.8657 99.7269L66.3374 91.3161C62.2318 92.5503 57.8614 93.2175 53.3232 93.2175Z" fill="white"/>
<path d="M96.8501 50.0362V50.5362C96.9859 50.5362 97.1158 50.481 97.2101 50.3833C97.3043 50.2855 97.3547 50.1537 97.3498 50.018L96.8501 50.0362ZM91.7536 50.0362V49.5362C91.5593 49.5362 91.3826 49.6488 91.3004 49.8249C91.2183 50.001 91.2456 50.2087 91.3705 50.3575L91.7536 50.0362ZM101.268 61.3805L100.885 61.7018C100.98 61.815 101.12 61.8805 101.268 61.8805C101.416 61.8805 101.556 61.815 101.651 61.7018L101.268 61.3805ZM110.783 50.0362L111.166 50.3575C111.291 50.2087 111.318 50.001 111.236 49.8249C111.154 49.6488 110.977 49.5362 110.783 49.5362V50.0362ZM105.638 50.0362L105.138 50.0511C105.146 50.3213 105.367 50.5362 105.638 50.5362V50.0362ZM23.0308 92.6591L22.7476 93.0712C22.9752 93.2276 23.2865 93.1699 23.4429 92.9424L23.0308 92.6591ZM28.0055 85.4212L28.4175 85.7044C28.4926 85.5951 28.5213 85.4605 28.4971 85.3301C28.4729 85.1997 28.398 85.0843 28.2887 85.0092L28.0055 85.4212ZM74.3283 88.0364L74.0942 87.5945C73.8502 87.7238 73.7572 88.0264 73.8865 88.2704L74.3283 88.0364ZM83.3078 81.7263L83.6775 81.3897C83.4916 81.1855 83.1753 81.1707 82.9712 81.3567L83.3078 81.7263ZM78.44 95.797L77.9982 96.0311C78.1275 96.2751 78.4301 96.3681 78.6741 96.2388L78.44 95.797ZM89.2214 88.2197L89.5581 88.5894C89.7622 88.4035 89.777 88.0872 89.5911 87.8831L89.2214 88.2197ZM37.6572 90.426L37.831 89.9572C37.7067 89.9111 37.5691 89.9163 37.4486 89.9716C37.3281 90.0269 37.2345 90.1278 37.1884 90.2522L37.6572 90.426ZM34.6038 98.6608L34.135 98.4869C34.039 98.7458 34.171 99.0336 34.4299 99.1296L34.6038 98.6608ZM68.8657 99.7269L69.0096 100.206C69.2741 100.126 69.424 99.8475 69.3445 99.583L68.8657 99.7269ZM66.3374 91.3161L66.8162 91.1722C66.7367 90.9077 66.4579 90.7578 66.1934 90.8373L66.3374 91.3161ZM53.3232 9.28262C28.9008 9.28262 9.28262 28.3652 9.28262 51.5064H10.2826C10.2826 28.9525 29.4174 10.2826 53.3232 10.2826V9.28262ZM97.3498 50.018C96.5291 27.5586 77.2273 9.28262 53.3232 9.28262V10.2826C76.7209 10.2826 95.5505 28.164 96.3504 50.0545L97.3498 50.018ZM96.8501 49.5362H91.7536V50.5362H96.8501V49.5362ZM91.3705 50.3575L100.885 61.7018L101.651 61.0592L92.1367 49.7149L91.3705 50.3575ZM101.651 61.7018L111.166 50.3575L110.399 49.7149L100.885 61.0592L101.651 61.7018ZM110.783 49.5362H105.638V50.5362H110.783V49.5362ZM53.3232 1.5C81.2631 1.5 104.337 23.0155 105.138 50.0511L106.138 50.0214C105.319 22.4114 81.7691 0.5 53.3232 0.5V1.5ZM1.5 51.5064C1.5 23.7856 24.8895 1.5 53.3232 1.5V0.5C24.375 0.5 0.5 23.1962 0.5 51.5064H1.5ZM23.314 92.2471C10.1647 83.2095 1.5 68.3437 1.5 51.5064H0.5C0.5 68.6984 9.34841 83.8619 22.7476 93.0712L23.314 92.2471ZM27.5934 85.138L22.6188 92.3759L23.4429 92.9424L28.4175 85.7044L27.5934 85.138ZM9.28262 51.5064C9.28262 65.5851 16.5188 78.1332 27.7222 85.8333L28.2887 85.0092C17.3355 77.4811 10.2826 65.2309 10.2826 51.5064H9.28262ZM74.5624 88.4782C77.8734 86.7239 80.924 84.5736 83.6445 82.096L82.9712 81.3567C80.3127 83.7777 77.3311 85.8795 74.0942 87.5945L74.5624 88.4782ZM78.8819 95.5629L74.7701 87.8023L73.8865 88.2704L77.9982 96.0311L78.8819 95.5629ZM88.8847 87.8501C85.6809 90.7678 82.0938 93.2953 78.2059 95.3552L78.6741 96.2388C82.6361 94.1397 86.2921 91.5637 89.5581 88.5894L88.8847 87.8501ZM82.9381 82.063L88.8517 88.5564L89.5911 87.8831L83.6775 81.3897L82.9381 82.063ZM37.4834 90.8948C42.3948 92.716 47.7344 93.7175 53.3232 93.7175V92.7175C47.8545 92.7175 42.6326 91.7376 37.831 89.9572L37.4834 90.8948ZM35.0726 98.8346L38.126 90.5998L37.1884 90.2522L34.135 98.4869L35.0726 98.8346ZM53.3232 101.5C46.7992 101.5 40.5441 100.33 34.7776 98.1919L34.4299 99.1296C40.3063 101.309 46.6791 102.5 53.3232 102.5V101.5ZM68.7218 99.2481C63.8501 100.713 58.6767 101.5 53.3232 101.5V102.5C58.7751 102.5 64.0455 101.698 69.0096 100.206L68.7218 99.2481ZM65.8585 91.4601L68.3869 99.8709L69.3445 99.583L66.8162 91.1722L65.8585 91.4601ZM53.3232 93.7175C57.9106 93.7175 62.3295 93.043 66.4813 91.795L66.1934 90.8373C62.1341 92.0575 57.8122 92.7175 53.3232 92.7175V93.7175Z" fill="#6C60B7"/>
</svg>
