<svg width="119" height="82" viewBox="0 0 119 82" fill="none" xmlns="http://www.w3.org/2000/svg">
<path d="M110.484 48.0952H105.67C104.46 48.0952 103.479 49.0759 103.479 50.2856C103.479 51.4954 104.46 52.4761 105.67 52.4761H112.165C113.157 52.4761 114.024 51.8102 114.281 50.8526L116.925 40.9851C117.126 40.2358 116.916 39.4362 116.372 38.8828L114.129 36.6005C113.628 34.771 112.681 31.4814 112 29.7493C110.962 27.1072 108.81 24.2586 105.377 23.0939C104.11 22.664 101.106 22.1125 98.124 21.6169C95.3131 21.1499 92.2825 20.6961 90.1454 20.3917L66.3728 1.47639C65.9851 1.16794 65.5044 1 65.009 1H24.9041C24.6648 1 24.427 1.03922 24.2004 1.11611C23.6116 1.31587 22.2808 1.87472 21.03 2.72341C19.7989 3.55868 18.9897 4.52765 18.6099 5.21347L11.3804 16.2499H5.51275C4.67754 16.2499 3.91502 16.7248 3.54673 17.4744L2.22459 20.1656C1.88887 20.8489 1.93206 21.6576 2.33866 22.3013L5.96656 28.0447V36.5661L2.96077 38.6054C2.18893 39.1291 1.83336 40.0841 2.07479 40.9851L4.71907 50.8526C4.97569 51.8102 5.84349 52.4761 6.83489 52.4761H11.5676C12.7774 52.4761 13.7581 51.4954 13.7581 50.2856C13.7581 49.0759 12.7774 48.0952 11.5676 48.0952H8.51565" stroke="#6C60B7" stroke-width="2" stroke-linecap="round" stroke-linejoin="round"/>
<path d="M73.4476 7.32031H36.5438C36.0511 7.32033 35.7981 7.36353 35.5184 7.55183C35.1874 7.77468 34.7063 8.28431 34.0434 9.52807C32.76 11.9363 31.8743 15.1542 31.5718 16.5625C31.5717 17.1077 31.5986 18.3032 32.3617 19.3941C32.6854 19.8568 33.1849 20.1333 33.7622 20.2913C34.3413 20.4498 34.9069 20.4631 35.2437 20.4631H90.7143" stroke="#6C60B7"/>
<path d="M40.9615 45.9046C40.9615 52.6109 35.5249 58.0474 28.8186 58.0474C22.1123 58.0474 16.6758 52.6109 16.6758 45.9046C16.6758 39.1983 22.1123 33.7617 28.8186 33.7617C35.5249 33.7617 40.9615 39.1983 40.9615 45.9046Z" stroke="#6C60B7" stroke-width="2"/>
<path d="M100.536 45.9046C100.536 52.6109 95.0996 58.0474 88.3933 58.0474C81.687 58.0474 76.2505 52.6109 76.2505 45.9046C76.2505 39.1983 81.687 33.7617 88.3933 33.7617C95.0996 33.7617 100.536 39.1983 100.536 45.9046Z" stroke="#6C60B7" stroke-width="2"/>
<path d="M31.6142 46.0251C31.6142 47.547 30.3804 48.7807 28.8586 48.7807C27.3367 48.7807 26.103 47.547 26.103 46.0251C26.103 44.5032 27.3367 43.2695 28.8586 43.2695C30.3804 43.2695 31.6142 44.5032 31.6142 46.0251Z" stroke="#6C60B7"/>
<path d="M91.1884 46.0251C91.1884 47.547 89.9547 48.7807 88.4328 48.7807C86.911 48.7807 85.6772 47.547 85.6772 46.0251C85.6772 44.5032 86.911 43.2695 88.4328 43.2695C89.9547 43.2695 91.1884 44.5032 91.1884 46.0251Z" stroke="#6C60B7"/>
<path d="M40.6597 50.9082H76.4709" stroke="#6C60B7" stroke-width="2"/>
<path d="M13.4526 25.0952C13.4526 24.7665 13.7191 24.5 14.0479 24.5H19.5241C19.8528 24.5 20.1193 24.7665 20.1193 25.0952V29.4762C20.1193 29.8049 19.8528 30.0714 19.5241 30.0714H14.0479C13.7191 30.0714 13.4526 29.8049 13.4526 29.4762V25.0952Z" stroke="#6C60B7"/>
<path d="M4 78H115" stroke="#6455BF"/>
<path d="M1 82V65" stroke="#6455BF"/>
<path d="M118 82V65" stroke="#6455BF"/>
<path d="M4 78L10 75V81L4 78Z" fill="#6455BF" stroke="#6455BF"/>
<path d="M115 78L109 81L109 75L115 78Z" fill="#6455BF" stroke="#6455BF"/>
</svg>
