<svg width="105" height="115" viewBox="0 0 105 115" fill="none" xmlns="http://www.w3.org/2000/svg">
<rect x="1" y="14" width="73" height="90" rx="1" stroke="#6C60B7" stroke-width="2"/>
<path d="M24.7959 9.08543C25.0798 8.71631 25.5191 8.5 25.9848 8.5H49.0152C49.4809 8.5 49.9202 8.71631 50.2041 9.08543L57.1272 18.0854C57.886 19.0719 57.1828 20.5 55.9383 20.5H19.0617C17.8172 20.5 17.114 19.0719 17.8728 18.0854L24.7959 9.08543Z" fill="white" stroke="#6C60B7"/>
<circle cx="37.5" cy="6.5" r="6" fill="white" stroke="#6C60B7"/>
<path d="M11 37.5L14 40.5L19 35.5" stroke="#6C60B7"/>
<path d="M11 50L14 53L19 48" stroke="#6C60B7"/>
<path d="M11 63L14 66L19 61" stroke="#6C60B7"/>
<path d="M11 76L14 79L19 74" stroke="#6C60B7"/>
<path d="M21.5 38H55" stroke="#6C60B7"/>
<path d="M21.5 50.5H55" stroke="#6C60B7"/>
<path d="M21.5 63.5H55" stroke="#6C60B7"/>
<path d="M21.5 76.5H55" stroke="#6C60B7"/>
<path d="M104 96.5C104 96.5946 103.911 96.9668 103.518 97.6674C103.154 98.3169 102.603 99.1224 101.875 100.032C100.423 101.847 98.318 104.016 95.7458 106.098C90.5788 110.281 83.6729 114 76.5 114C67.5468 114 60.6482 110.253 55.9744 106.125C53.6361 104.06 51.8666 101.91 50.6884 100.109C50.0989 99.2077 49.6652 98.4059 49.3827 97.757C49.0856 97.0748 49 96.661 49 96.5C49 96.3773 49.089 95.988 49.4398 95.2959C49.7687 94.647 50.2695 93.8432 50.9376 92.9373C52.2724 91.1275 54.2333 88.9663 56.7055 86.8909C61.6602 82.7314 68.565 79 76.5 79C84.435 79 91.3398 82.7314 96.2945 86.8909C98.7667 88.9663 100.728 91.1275 102.062 92.9373C102.73 93.8432 103.231 94.647 103.56 95.2959C103.911 95.988 104 96.3773 104 96.5Z" fill="white" stroke="#6C60B7" stroke-width="2"/>
<circle cx="76.5" cy="96.5" r="11" stroke="#6C60B7"/>
</svg>
