<svg width="90" height="105" viewBox="0 0 90 105" fill="none" xmlns="http://www.w3.org/2000/svg">
<path d="M17 43.6992V104.699" stroke="#6C60B7" stroke-width="2"/>
<path d="M74 43.6992V104.699" stroke="#6C60B7" stroke-width="2"/>
<path d="M63 37.6992V104.699" stroke="#6C60B7"/>
<path d="M52 37.6992V104.699" stroke="#6C60B7"/>
<path d="M40 37.6992V104.699" stroke="#6C60B7"/>
<path d="M29 37.6992V104.699" stroke="#6C60B7"/>
<path d="M11.7178 24.4355H78.846" stroke="#6C60B7" stroke-width="2"/>
<path d="M20.7436 40.2304C19.6154 42.4868 16.2308 45.8714 11.1538 45.8714C6.07692 45.8714 1 41.9485 1 35.7176C1 29.4867 6.05115 24.4355 12.2821 24.4355" stroke="#6C60B7" stroke-width="2"/>
<path d="M70.9487 40.2304C71.9802 42.4868 75.0747 45.8714 79.7165 45.8714C84.3582 45.8714 89 41.9485 89 35.7176C89 29.4867 84.3818 24.4355 78.685 24.4355" stroke="#6C60B7" stroke-width="2"/>
<path d="M12.9295 40.6441C8.01527 40.6441 6.79889 35.8983 8.01527 32.9813C9.46145 29.5132 14.4615 28.3182 17.9346 30.3234C21.4077 32.3286 22.5976 36.7696 20.5924 40.2427" stroke="#6C60B7" stroke-width="2"/>
<path d="M77.9884 40.6441C82.5245 40.6441 83.6473 35.8983 82.5245 32.9813C81.1896 29.5132 76.5744 28.3182 73.3686 30.3234C70.1628 32.3286 69.0644 36.7696 70.9153 40.2427" stroke="#6C60B7" stroke-width="2"/>
<rect x="16" y="12.6992" width="60" height="6" rx="3" stroke="#6C60B7" stroke-width="2"/>
<rect x="7" y="1" width="78.1026" height="7.02564" rx="3.51282" stroke="#6C60B7" stroke-width="2"/>
</svg>
