<svg width="103" height="102" viewBox="0 0 103 102" fill="none" xmlns="http://www.w3.org/2000/svg">
<path d="M19.5915 30.8019C17.8859 29.2693 17.8152 26.6195 19.4366 24.9982L24.0379 20.3968C25.6474 18.7873 28.2738 18.8435 29.8131 20.5203L70.6154 64.9701L64.4632 71.1223L19.5915 30.8019Z" stroke="#6C60B7" stroke-width="2"/>
<path d="M73.1716 20.2426C74.7337 18.6805 77.2663 18.6805 78.8284 20.2426L83.7782 25.1924C85.3403 26.7545 85.3403 29.2871 83.7782 30.8492L40.0885 74.5389L22.9308 81.09L29.4819 63.9323L73.1716 20.2426Z" fill="white" stroke="#6C60B7" stroke-width="2"/>
<path d="M30.0381 64.79L39.584 74.336" stroke="#6C60B7"/>
<path d="M25.0884 73.9824L29.6846 78.5786" stroke="#6C60B7"/>
<rect x="68.9287" y="23.7784" width="16" height="8" transform="rotate(45 68.9287 23.7784)" stroke="#6C60B7"/>
<rect x="5.5" y="4.5" width="93" height="93" stroke="#6C60B7"/>
<rect x="93.5" y="92.5" width="9" height="9" fill="white" stroke="#6C60B7"/>
<rect x="0.5" y="92.5" width="9" height="9" fill="white" stroke="#6C60B7"/>
<rect x="93.5" y="0.5" width="9" height="9" fill="white" stroke="#6C60B7"/>
<rect x="0.5" y="0.5" width="9" height="9" fill="white" stroke="#6C60B7"/>
<path d="M84.1196 74.4744C84.964 76.0424 85.2234 78.3213 85.0474 80.7303C84.9441 82.1444 84.6949 83.5484 84.363 84.7969C84.1829 84.6007 83.9853 84.4221 83.7725 84.2606C82.8803 83.5838 81.7793 83.2503 80.7309 83.0829C79.186 82.8364 77.4453 82.9258 76.3355 82.9829C75.9857 83.0009 75.6986 83.0156 75.5 83.0156C71.634 83.0156 68.5 79.8816 68.5 76.0156C68.5 72.1496 71.634 69.0156 75.5 69.0156C79.4851 69.0156 82.2809 71.0605 84.1196 74.4744Z" stroke="#6C60B7" stroke-width="2"/>
</svg>
