<svg width="102" height="90" viewBox="0 0 102 90" fill="none" xmlns="http://www.w3.org/2000/svg">
<path d="M1 85C1 82.7909 2.79086 81 5 81H44V89H5C2.79086 89 1 87.2091 1 85Z" stroke="#6C60B7" stroke-width="2"/>
<path d="M36 78.5C36 72.701 40.701 68 46.5 68H101V89H46.5C40.701 89 36 84.299 36 78.5Z" fill="white" stroke="#6C60B7" stroke-width="2"/>
<circle cx="47.5" cy="78.5" r="4.5" stroke="#6C60B7" stroke-width="2"/>
<circle cx="68.5" cy="78.5" r="4.5" stroke="#6C60B7" stroke-width="2"/>
<circle cx="89.5" cy="78.5" r="4.5" stroke="#6C60B7" stroke-width="2"/>
<rect x="49" y="46" width="18" height="18" rx="1" stroke="#6C60B7" stroke-width="2"/>
<path d="M58 47V51.5" stroke="#6C60B7" stroke-width="2" stroke-linecap="round"/>
<rect x="79" y="46" width="18" height="18" rx="1" stroke="#6C60B7" stroke-width="2"/>
<path d="M88 47V51.5" stroke="#6C60B7" stroke-width="2" stroke-linecap="round"/>
<path d="M6.56639 80.5L11.4414 41.5H22.5586L27.4336 80.5H6.56639Z" stroke="#6C60B7"/>
<path d="M11.718 35.1537L32.1382 3.86695L38.6961 7.34464L24.2525 41.8008L11.718 35.1537Z" stroke="#6C60B7"/>
<path d="M35.5 0.560585L57.5 3.08233L57.5 10.9177L35.5 13.4394L35.5 0.560585Z" stroke="#6C60B7"/>
<path d="M60.1191 27.5974L55.5422 19.67L60.4953 7.75037L73.2945 9.4207L77.8714 17.3482" stroke="#6C60B7" stroke-width="2" stroke-linecap="round" stroke-linejoin="round"/>
<circle cx="17" cy="40" r="7.5" fill="white" stroke="#6C60B7"/>
<circle cx="35" cy="7" r="6.5" fill="white" stroke="#6C60B7"/>
<circle cx="60" cy="7" r="4.5" fill="white" stroke="#6C60B7"/>
</svg>
