<svg width="225" height="171" viewBox="0 0 225 171" fill="none" xmlns="http://www.w3.org/2000/svg">
<rect x="5.49756" y="5.09668" width="108.845" height="160.709" rx="2" stroke="#6C60B7" stroke-width="2"/>
<rect x="1" y="1" width="117.632" height="168.902" rx="2" stroke="#6C60B7" stroke-width="2"/>
<circle cx="177.713" cy="85.9651" r="46.2873" stroke="#6C60B7" stroke-width="2"/>
<circle cx="177.712" cy="85.9651" r="16.2794" stroke="#6C60B7" stroke-dasharray="2 2"/>
<circle cx="177.712" cy="85.9651" r="30.5164" stroke="#6C60B7" stroke-dasharray="2 2"/>
<path d="M178.221 38.6779V132.235" stroke="#6C60B7" stroke-dasharray="2 2"/>
<path d="M225 85.4567L131.442 85.4567" stroke="#6C60B7" stroke-dasharray="2 2"/>
<circle cx="173.645" cy="103.253" r="17.7963" fill="#E87E91"/>
<circle cx="163.984" cy="95.6259" r="14.237" fill="#6C60B7"/>
<circle cx="18.7344" cy="19.3506" r="2.55079" stroke="#6C60B7"/>
<circle cx="35.0054" cy="19.3506" r="2.55079" stroke="#6C60B7"/>
<circle cx="51.2759" cy="19.3506" r="2.55079" stroke="#6C60B7"/>
<circle cx="67.5474" cy="19.3506" r="2.55079" stroke="#6C60B7"/>
<circle cx="83.8179" cy="19.3506" r="2.55079" stroke="#6C60B7"/>
<circle cx="100.089" cy="19.3506" r="2.55079" stroke="#6C60B7"/>
<circle cx="18.7344" cy="84.4342" r="2.55079" stroke="#6C60B7"/>
<circle cx="35.0054" cy="84.4342" r="2.55079" stroke="#6C60B7"/>
<circle cx="51.2761" cy="84.4341" r="4.08465" stroke="#6C60B7" stroke-width="2"/>
<circle cx="67.5471" cy="84.4341" r="4.08465" stroke="#6C60B7" stroke-width="2"/>
<circle cx="83.8179" cy="84.4342" r="2.55079" stroke="#6C60B7"/>
<circle cx="100.089" cy="84.4342" r="2.55079" stroke="#6C60B7"/>
<circle cx="18.7344" cy="51.8923" r="2.55079" stroke="#6C60B7"/>
<circle cx="35.0054" cy="51.8923" r="2.55079" stroke="#6C60B7"/>
<circle cx="51.2759" cy="51.8923" r="2.55079" stroke="#6C60B7"/>
<circle cx="67.5474" cy="51.8923" r="2.55079" stroke="#6C60B7"/>
<circle cx="83.8179" cy="51.8923" r="2.55079" stroke="#6C60B7"/>
<circle cx="100.089" cy="51.8923" r="2.55079" stroke="#6C60B7"/>
<circle cx="18.7344" cy="116.976" r="2.55079" stroke="#6C60B7"/>
<circle cx="35.0054" cy="116.976" r="2.55079" stroke="#6C60B7"/>
<circle cx="51.2761" cy="116.976" r="4.08465" stroke="#6C60B7" stroke-width="2"/>
<circle cx="67.5474" cy="116.976" r="2.55079" stroke="#6C60B7"/>
<circle cx="83.8179" cy="116.976" r="2.55079" stroke="#6C60B7"/>
<circle cx="100.089" cy="116.976" r="2.55079" stroke="#6C60B7"/>
<circle cx="18.7344" cy="35.6215" r="2.55079" stroke="#6C60B7"/>
<circle cx="35.0054" cy="35.6215" r="2.55079" stroke="#6C60B7"/>
<circle cx="51.2759" cy="35.6215" r="2.55079" stroke="#6C60B7"/>
<circle cx="67.5474" cy="35.6215" r="2.55079" stroke="#6C60B7"/>
<circle cx="83.8179" cy="35.6215" r="2.55079" stroke="#6C60B7"/>
<circle cx="100.089" cy="35.6215" r="2.55079" stroke="#6C60B7"/>
<circle cx="18.7344" cy="100.705" r="2.55079" stroke="#6C60B7"/>
<circle cx="35.0054" cy="100.705" r="2.55079" stroke="#6C60B7"/>
<circle cx="51.2759" cy="100.705" r="2.55079" stroke="#6C60B7"/>
<circle cx="67.5474" cy="100.705" r="2.55079" stroke="#6C60B7"/>
<circle cx="83.8179" cy="100.705" r="2.55079" stroke="#6C60B7"/>
<circle cx="100.089" cy="100.705" r="2.55079" stroke="#6C60B7"/>
<circle cx="18.7344" cy="68.1632" r="2.55079" stroke="#6C60B7"/>
<circle cx="35.0054" cy="68.1632" r="2.55079" stroke="#6C60B7"/>
<circle cx="51.2761" cy="68.1633" r="4.08465" stroke="#6C60B7" stroke-width="2"/>
<circle cx="67.5474" cy="68.1632" r="2.55079" stroke="#6C60B7"/>
<circle cx="83.8179" cy="68.1632" r="2.55079" stroke="#6C60B7"/>
<circle cx="100.089" cy="68.1632" r="2.55079" stroke="#6C60B7"/>
<circle cx="18.7344" cy="133.247" r="2.55079" stroke="#6C60B7"/>
<circle cx="35.0054" cy="133.247" r="2.55079" stroke="#6C60B7"/>
<circle cx="51.2759" cy="133.247" r="2.55079" stroke="#6C60B7"/>
<circle cx="67.5474" cy="133.247" r="2.55079" stroke="#6C60B7"/>
<circle cx="83.8179" cy="133.247" r="2.55079" stroke="#6C60B7"/>
<circle cx="100.089" cy="133.247" r="2.55079" stroke="#6C60B7"/>
<circle cx="18.7344" cy="149.518" r="2.55079" stroke="#6C60B7"/>
<circle cx="35.0054" cy="149.518" r="2.55079" stroke="#6C60B7"/>
<circle cx="51.2759" cy="149.518" r="2.55079" stroke="#6C60B7"/>
<circle cx="67.5474" cy="149.518" r="2.55079" stroke="#6C60B7"/>
<circle cx="83.8179" cy="149.518" r="2.55079" stroke="#6C60B7"/>
<circle cx="100.089" cy="149.518" r="2.55079" stroke="#6C60B7"/>
<path d="M20.105 88.502H36.6854L41.1069 128.162H15.6836L20.105 88.502Z" fill="#E87E91"/>
<path d="M30.4513 112.908H47.6949L52.2932 152.569H25.853L30.4513 112.908Z" fill="#6C60B7"/>
</svg>
