<svg width="237" height="163" viewBox="0 0 237 163" fill="none" xmlns="http://www.w3.org/2000/svg">
<path d="M117.652 13.5906C117.652 14.9845 116.711 16.5111 114.529 18.0664C112.372 19.6037 109.186 21.0292 105.159 22.2432C97.118 24.6673 85.9495 26.1812 73.5702 26.1812C61.191 26.1812 50.0224 24.6673 41.9815 22.2432C37.9547 21.0292 34.7688 19.6037 32.6119 18.0664C30.4298 16.5111 29.4888 14.9845 29.4888 13.5906C29.4888 12.1967 30.4298 10.6701 32.6119 9.11485C34.7688 7.57752 37.9547 6.15198 41.9815 4.93803C50.0224 2.51395 61.191 1 73.5702 1C85.9495 1 97.118 2.51395 105.159 4.93803C109.186 6.15198 112.372 7.57752 114.529 9.11485C116.711 10.6701 117.652 12.1967 117.652 13.5906Z" stroke="#6C60B7" stroke-width="2"/>
<path d="M117.552 147.866C117.552 155.672 97.8608 162 73.5703 162C49.2797 162 29.5884 155.672 29.5884 147.866" stroke="#6C60B7" stroke-width="2" stroke-linecap="round"/>
<path d="M105.457 121.946C105.457 127.351 91.1811 131.732 73.5705 131.732C55.9598 131.732 41.6836 127.351 41.6836 121.946" stroke="#6C60B7"/>
<path d="M105.457 124C105.457 129.404 91.1811 133.785 73.5705 133.785C55.9598 133.785 41.6836 129.404 41.6836 124" stroke="#6C60B7"/>
<path d="M105.457 41.3154C105.457 46.7196 91.1811 51.1006 73.5705 51.1006C55.9598 51.1006 41.6836 46.7196 41.6836 41.3154" stroke="#6C60B7"/>
<path d="M115 144C115 152.284 96.4198 158 73.5 158C50.5802 158 32 151.284 32 143" stroke="#6C60B7"/>
<path d="M117.552 14.6779L106.391 35.1143C104.219 39.0914 104.993 44.0319 108.277 47.1544L119.846 58.1532C133.878 71.4948 133.952 93.8442 120.008 107.278L108.528 118.339C105.133 121.61 104.484 126.808 106.97 130.813L117.552 147.866" stroke="#6C60B7" stroke-width="2"/>
<path d="M107.192 21L98.4263 40.053C96.434 44.3832 97.7749 49.5176 101.63 52.3207L106.859 56.1227C121.906 67.0634 125.365 88.0656 114.623 103.255L98.6129 125.892C96.4028 129.017 96.1702 133.129 98.0139 136.483L108.192 155" stroke="#6C60B7"/>
<path d="M29.0384 14.1343L40.2247 34.7015C42.3832 38.6701 41.6128 43.593 38.3452 46.7125L26.5904 57.9344C12.6248 71.2668 12.5511 93.5392 26.4282 106.964L38.0966 118.252C41.4745 121.519 42.121 126.698 39.6501 130.696L29.0384 147.866" stroke="#6C60B7" stroke-width="2"/>
<path d="M109.355 13.5906C109.355 13.9899 109.175 14.424 108.74 14.8946C108.302 15.3679 107.633 15.8484 106.729 16.3217C104.921 17.2677 102.273 18.1347 98.9585 18.8685C92.3376 20.3342 83.1669 21.245 73.0204 21.245C62.8739 21.245 53.7031 20.3342 47.0823 18.8685C43.7678 18.1347 41.1195 17.2677 39.3121 16.3217C38.4078 15.8484 37.7385 15.3679 37.3011 14.8946C36.8661 14.424 36.6855 13.9899 36.6855 13.5906C36.6855 13.1914 36.8661 12.7572 37.3011 12.2866C37.7385 11.8134 38.4078 11.3329 39.3121 10.8596C41.1195 9.91357 43.7678 9.04657 47.0823 8.31282C53.7031 6.84712 62.8739 5.93628 73.0204 5.93628C83.1669 5.93628 92.3376 6.84712 98.9585 8.31282C102.273 9.04657 104.921 9.91357 106.729 10.8596C107.633 11.3329 108.302 11.8134 108.74 12.2866C109.175 12.7572 109.355 13.1914 109.355 13.5906Z" stroke="#6C60B7"/>
<path d="M187.68 25.5864C198.808 22.914 213.203 17.7917 219.01 15.5647C220.83 14.8775 222.52 14.4083 225.51 14.1514C228.5 13.8944 232.27 16.5926 233.31 18.5198C234.142 20.0616 234.783 25.0725 235 27.3852L231.1 43.9597C230.883 43.7884 229.722 43.2402 226.81 42.4179C223.898 41.5956 220.223 42.7605 218.75 43.4458L164.67 64.3887C163.11 64.817 159.6 65.5707 158.04 65.1596C156.48 64.7484 155.483 63.2752 155.18 62.5899C152.147 52.6966 146.574 32.5246 148.55 30.9828C150.526 29.441 153.793 30.3404 155.18 30.9828C161.377 30.2975 176.552 28.2589 187.68 25.5864Z" stroke="#6C60B7" stroke-width="2"/>
<path d="M165.058 64.2347V65.1308C163.326 65.7282 159.787 67.0509 159.483 67.563C159.103 68.203 159.99 101.741 160.243 102.381C160.446 102.893 164.213 103.619 166.072 103.917V104.941" stroke="#6C60B7" stroke-width="2"/>
<path d="M160.783 104.277L221.156 115.957C222.84 116.385 226.701 117.24 228.67 117.24H233.593C232.254 124.428 229.499 139.136 229.188 140.471C228.8 142.14 226.986 143.68 223.099 144.45C219.212 145.22 208.718 142.91 200.557 141.883C192.395 140.856 170.888 139.829 169.463 140.471C168.323 140.984 167.347 141.626 167.002 141.883C164.929 141.84 160.058 141.78 157.156 141.883C153.528 142.011 152.362 142.396 150.548 139.829C148.734 137.262 155.601 106.074 157.156 105.048C158.399 104.226 160.179 104.192 160.783 104.277Z" stroke="#6C60B7" stroke-width="2"/>
<path d="M230.78 44.0554L233.593 117.119" stroke="#6C60B7" stroke-width="2"/>
<path d="M168.533 62.8837L169.547 64.1871C170.567 65.4982 172.023 66.401 173.651 66.7324V66.7324C174.887 66.9839 176.168 66.8948 177.357 66.4745L199.013 58.8202C201.107 58.0801 203.436 58.5133 205.124 59.9565V59.9565C206.445 61.0863 207.233 62.7177 207.296 64.455L208.517 98.0158C208.586 99.9148 207.895 101.763 206.599 103.152V103.152C204.949 104.919 202.517 105.732 200.136 105.313L177.312 101.294C176.15 101.09 174.955 101.189 173.843 101.581V101.581C172.58 102.027 171.475 102.834 170.666 103.901L169.182 105.857" stroke="#6C60B7" stroke-width="2"/>
<path d="M211.474 108.195L209.679 52.9467L221.216 48.5782L223.395 110.508L211.474 108.195Z" stroke="#6C60B7"/>
<path d="M191.318 61.7992V63.2203C191.318 64.5569 190.599 65.7898 189.435 66.447V66.447C188.225 67.1301 187.499 68.4323 187.554 69.8204L188.538 94.6453C188.588 95.9266 189.376 97.0624 190.559 97.5585L191.531 97.9666C192.63 98.4277 193.166 99.6772 192.742 100.791V100.791C192.363 101.785 191.33 102.369 190.284 102.18L180.975 100.501C178.512 100.056 175.972 100.393 173.71 101.464L172.05 102.25" stroke="#6C60B7" stroke-width="2"/>
<path d="M204.845 59.7117L197.234 62.7893L198.87 63.7701C200.69 64.8619 200.623 67.5226 198.75 68.5212V68.5212C197.823 69.015 197.262 69.9964 197.306 71.0454L198.349 95.8395C198.39 96.8186 198.93 97.7083 199.78 98.1967L200.296 98.4936C202.199 99.5872 201.954 102.406 199.892 103.156V103.156C199.609 103.258 199.311 103.311 199.01 103.311H197.598C196.89 103.311 196.315 103.885 196.315 104.593V104.593" stroke="#6C60B7"/>
<path d="M224.092 15.526V15.526C226.334 20.0216 226.558 25.2585 224.708 29.929L219.526 43.0116" stroke="#6C60B7"/>
<path d="M223.746 118.162L220.916 135.675C220.359 139.115 218.304 142.131 215.306 143.908V143.908" stroke="#6C60B7"/>
<path d="M180.138 105.935L223.405 114.103C225.924 114.579 228.234 112.596 228.145 110.034L226.048 49.5607C225.954 46.844 223.235 45.0105 220.681 45.9409L180.138 60.7103" stroke="#6C60B7"/>
<path d="M159.741 109.116L154.817 136.254" stroke="#6C60B7"/>
<path d="M153.059 36.4011L158.686 58.3201" stroke="#6C60B7"/>
<ellipse rx="0.549762" ry="0.543636" transform="matrix(0.999045 -0.0436863 0.0446785 0.999001 211.321 55.0751)" fill="#6C60B7"/>
<ellipse rx="0.549761" ry="0.543636" transform="matrix(0.999045 -0.0436865 0.0446784 0.999001 211.467 58.3337)" fill="#6C60B7"/>
<ellipse rx="0.549762" ry="0.543636" transform="matrix(0.999045 -0.0436863 0.0446785 0.999001 211.661 62.6784)" fill="#6C60B7"/>
<ellipse rx="0.549761" ry="0.543636" transform="matrix(0.999045 -0.0436865 0.0446784 0.999001 211.855 67.0232)" fill="#6C60B7"/>
<ellipse rx="0.549761" ry="0.543636" transform="matrix(0.999045 -0.0436865 0.0446784 0.999001 212.001 70.2818)" fill="#6C60B7"/>
<ellipse rx="0.549764" ry="0.543634" transform="matrix(0.999045 -0.043686 0.0446788 0.999001 212.195 74.6265)" fill="#6C60B7"/>
<ellipse rx="0.549762" ry="0.543634" transform="matrix(0.999045 -0.0436862 0.0446787 0.999001 212.341 77.885)" fill="#6C60B7"/>
<ellipse rx="0.549759" ry="0.543634" transform="matrix(0.999045 -0.0436865 0.0446784 0.999001 212.487 81.1436)" fill="#6C60B7"/>
<ellipse rx="0.549761" ry="0.543638" transform="matrix(0.999045 -0.0436866 0.0446782 0.999001 212.681 85.4884)" fill="#6C60B7"/>
<ellipse rx="0.549761" ry="0.543634" transform="matrix(0.999045 -0.0436863 0.0446785 0.999001 212.827 88.747)" fill="#6C60B7"/>
<ellipse rx="0.549757" ry="0.543634" transform="matrix(0.999045 -0.0436866 0.0446782 0.999001 212.972 92.0055)" fill="#6C60B7"/>
<ellipse rx="0.549761" ry="0.543641" transform="matrix(0.999045 -0.0436869 0.0446779 0.999001 213.167 96.3503)" fill="#6C60B7"/>
<ellipse rx="0.549761" ry="0.543638" transform="matrix(0.999045 -0.0436866 0.0446782 0.999001 213.361 100.695)" fill="#6C60B7"/>
<ellipse rx="0.549761" ry="0.543638" transform="matrix(0.999045 -0.0436866 0.0446782 0.999001 213.507 103.954)" fill="#6C60B7"/>
<ellipse rx="0.549761" ry="0.543634" transform="matrix(0.999045 -0.0436863 0.0446785 0.999001 213.701 108.298)" fill="#6C60B7"/>
<ellipse rx="0.549761" ry="0.543638" transform="matrix(0.999045 -0.0436866 0.0446782 0.999001 214.568 53.8448)" fill="#6C60B7"/>
<ellipse rx="0.549761" ry="0.543634" transform="matrix(0.999045 -0.0436863 0.0446785 0.999001 214.714 57.1034)" fill="#6C60B7"/>
<ellipse rx="0.549764" ry="0.543636" transform="matrix(0.999045 -0.0436862 0.0446787 0.999001 214.908 61.4482)" fill="#6C60B7"/>
<ellipse rx="0.549757" ry="0.543634" transform="matrix(0.999045 -0.0436866 0.0446782 0.999001 215.102 65.7929)" fill="#6C60B7"/>
<ellipse rx="0.549768" ry="0.543636" transform="matrix(0.999045 -0.0436859 0.0446789 0.999001 215.248 69.0515)" fill="#6C60B7"/>
<ellipse rx="0.549764" ry="0.543634" transform="matrix(0.999045 -0.043686 0.0446788 0.999001 215.442 73.3963)" fill="#6C60B7"/>
<ellipse rx="0.549764" ry="0.543634" transform="matrix(0.999045 -0.043686 0.0446788 0.999001 215.588 76.6548)" fill="#6C60B7"/>
<ellipse rx="0.549761" ry="0.543634" transform="matrix(0.999045 -0.0436863 0.0446785 0.999001 215.734 79.9134)" fill="#6C60B7"/>
<ellipse rx="0.549764" ry="0.543638" transform="matrix(0.999045 -0.0436863 0.0446785 0.999001 215.928 84.2581)" fill="#6C60B7"/>
<ellipse rx="0.549761" ry="0.543638" transform="matrix(0.999045 -0.0436866 0.0446782 0.999001 216.074 87.5166)" fill="#6C60B7"/>
<ellipse rx="0.549757" ry="0.543634" transform="matrix(0.999045 -0.0436866 0.0446782 0.999001 216.219 90.7752)" fill="#6C60B7"/>
<ellipse rx="0.549761" ry="0.543638" transform="matrix(0.999045 -0.0436866 0.0446782 0.999001 216.414 95.1199)" fill="#6C60B7"/>
<ellipse rx="0.549764" ry="0.543638" transform="matrix(0.999045 -0.0436863 0.0446785 0.999001 216.608 99.4648)" fill="#6C60B7"/>
<ellipse rx="0.549764" ry="0.543638" transform="matrix(0.999045 -0.0436863 0.0446785 0.999001 216.754 102.723)" fill="#6C60B7"/>
<ellipse rx="0.549761" ry="0.543638" transform="matrix(0.999045 -0.0436866 0.0446782 0.999001 216.948 107.068)" fill="#6C60B7"/>
<ellipse rx="0.549761" ry="0.543638" transform="matrix(0.999045 -0.0436866 0.0446782 0.999001 217.815 52.6145)" fill="#6C60B7"/>
<ellipse rx="0.549764" ry="0.543634" transform="matrix(0.999045 -0.043686 0.0446788 0.999001 217.96 55.8731)" fill="#6C60B7"/>
<ellipse rx="0.549761" ry="0.543636" transform="matrix(0.999045 -0.0436865 0.0446784 0.999001 218.155 60.2179)" fill="#6C60B7"/>
<ellipse rx="0.549757" ry="0.543634" transform="matrix(0.999045 -0.0436866 0.0446782 0.999001 218.349 64.5627)" fill="#6C60B7"/>
<ellipse rx="0.549761" ry="0.543638" transform="matrix(0.999045 -0.0436866 0.0446782 0.999001 218.495 67.8212)" fill="#6C60B7"/>
<ellipse rx="0.549764" ry="0.543634" transform="matrix(0.999045 -0.043686 0.0446788 0.999001 218.689 72.1659)" fill="#6C60B7"/>
<ellipse rx="0.549761" ry="0.543634" transform="matrix(0.999045 -0.0436863 0.0446785 0.999001 218.835 75.4245)" fill="#6C60B7"/>
<ellipse rx="0.549757" ry="0.543638" transform="matrix(0.999045 -0.0436869 0.0446779 0.999001 218.981 78.683)" fill="#6C60B7"/>
<ellipse rx="0.549761" ry="0.543638" transform="matrix(0.999045 -0.0436866 0.0446782 0.999001 219.175 83.0279)" fill="#6C60B7"/>
<ellipse rx="0.549761" ry="0.543638" transform="matrix(0.999045 -0.0436866 0.0446782 0.999001 219.321 86.2864)" fill="#6C60B7"/>
<ellipse rx="0.549764" ry="0.543638" transform="matrix(0.999045 -0.0436863 0.0446785 0.999001 219.466 89.545)" fill="#6C60B7"/>
<ellipse rx="0.549764" ry="0.543638" transform="matrix(0.999045 -0.0436863 0.0446785 0.999001 219.66 93.8897)" fill="#6C60B7"/>
<ellipse rx="0.549761" ry="0.543641" transform="matrix(0.999045 -0.0436869 0.0446779 0.999001 219.855 98.2344)" fill="#6C60B7"/>
<ellipse rx="0.549761" ry="0.543634" transform="matrix(0.999045 -0.0436863 0.0446785 0.999001 220.001 101.493)" fill="#6C60B7"/>
<ellipse rx="0.549761" ry="0.543638" transform="matrix(0.999045 -0.0436866 0.0446782 0.999001 220.195 105.838)" fill="#6C60B7"/>
<path d="M48.5316 73.3083L48.6006 73.6227L48.9152 73.6901L60.1892 76.1073L48.9152 78.5245L48.6006 78.5919L48.5316 78.9063L46.0811 90.0817L43.6306 78.9063L43.5616 78.5919L43.247 78.5245L31.973 76.1073L43.247 73.6901L43.5616 73.6227L43.6306 73.3083L46.0811 62.1329L48.5316 73.3083Z" stroke="#6C60B7"/>
<path d="M16.6956 39.539L16.832 40.168L17.461 40.3044L25.2809 42L17.461 43.6956L16.832 43.832L16.6956 44.461L15 52.2809L13.3044 44.461L13.168 43.832L12.539 43.6956L4.71913 42L12.539 40.3044L13.168 40.168L13.3044 39.539L15 31.7191L16.6956 39.539Z" stroke="#6C60B7" stroke-width="2"/>
<path d="M63.3977 90.139L63.4667 90.4534L63.7813 90.5208L70.0854 91.8724L63.7813 93.2241L63.4667 93.2915L63.3977 93.6059L62.0248 99.8669L60.6519 93.6059L60.5829 93.2915L60.2683 93.2241L53.9642 91.8724L60.2683 90.5208L60.5829 90.4534L60.6519 90.139L62.0248 83.8779L63.3977 90.139Z" stroke="#6C60B7"/>
<rect x="91.1631" y="53.2751" width="54.9774" height="3.26174" fill="#E87E91"/>
<rect x="91.1631" y="72.8456" width="54.9774" height="3.26174" fill="#E87E91"/>
<rect x="91.1631" y="92.4161" width="54.9774" height="3.26174" fill="#E87E91"/>
<rect x="91.1631" y="111.987" width="54.9774" height="3.26174" fill="#E87E91"/>
</svg>
