<svg width="80" height="80" viewBox="0 0 80 80" fill="none" xmlns="http://www.w3.org/2000/svg">
<rect x="6.08038" y="32.5452" width="60" height="48.0769" rx="8" transform="rotate(-19.5673 6.08038 32.5452)" stroke="black" stroke-width="2"/>
<path d="M64.506 29.7134L62.0779 22.8821C61.1531 20.2802 58.294 18.9206 55.6921 19.8455L17.0599 33.5769C14.4579 34.5017 13.0984 37.3608 14.0232 39.9627L23.7357 67.2879C24.6605 69.8899 27.5195 71.2494 30.1215 70.3246L68.7537 56.5932C71.3557 55.6683 72.7152 52.8093 71.7904 50.2074L69.3623 43.3761" stroke="black" stroke-dasharray="2 2"/>
<path d="M11.47 26.8157L10.9443 25.9651L11.47 26.8157ZM38.554 10.0783L39.0797 10.9289L38.554 10.0783ZM7.66125 40.1718C7.84626 40.6922 8.41809 40.9641 8.93846 40.779C9.45884 40.594 9.7307 40.0222 9.54569 39.5018L7.66125 40.1718ZM11.9957 27.6664L39.0797 10.9289L38.0283 9.22758L10.9443 25.9651L11.9957 27.6664ZM39.0797 10.9289C43.1034 8.44234 48.378 9.68065 50.8616 13.6886L52.5616 12.6351C49.4946 7.68572 42.9875 6.16291 38.0283 9.22758L39.0797 10.9289ZM10.9443 25.9651C8.43353 27.5167 7.11542 29.7697 6.69205 32.3068C6.27487 34.8068 6.7283 37.5478 7.66125 40.1718L9.54569 39.5018C8.68125 37.0705 8.32221 34.6888 8.66477 32.636C9.00113 30.6203 10.015 28.8905 11.9957 27.6664L10.9443 25.9651Z" fill="black"/>
<path d="M47.5026 38.7213C46.9477 37.1601 47.7634 35.4447 49.3246 34.8898L68.2058 28.1787L73.1265 42.0225L54.2453 48.7336C52.6841 49.2885 50.9687 48.4728 50.4138 46.9116L47.5026 38.7213Z" stroke="black" stroke-width="2"/>
<circle cx="57.0005" cy="40" r="2" fill="black"/>
</svg>
