<svg width="78" height="91" viewBox="0 0 78 91" fill="none" xmlns="http://www.w3.org/2000/svg">
<path d="M26.6313 48.2456H17.2515C13.1414 48.2456 9.19965 46.6129 6.29338 43.7066C3.38712 40.8004 1.75439 36.8586 1.75439 32.7485V17.2515C1.75439 13.1414 3.38712 9.19965 6.29338 6.29338C9.19965 3.38712 13.1414 1.75439 17.2515 1.75439H32.7485C36.8586 1.75439 40.8004 3.38712 43.7066 6.29338C46.6129 9.19965 48.2456 13.1414 48.2456 17.2515V32.7485C48.2456 35.4924 47.5179 38.1613 46.1695 40.4971" stroke="black" stroke-width="2" stroke-linecap="round"/>
<path d="M10.9165 18.75C10.9165 18.33 11.0833 17.9273 11.3803 17.6304C11.6772 17.3334 12.0799 17.1666 12.4998 17.1666H24.9998C26.5248 17.1666 27.9874 17.7724 29.0657 18.8508C30.144 19.9291 30.7498 21.3916 30.7498 22.9166V31.25C30.7498 31.6699 30.583 32.0726 30.2861 32.3695C29.9892 32.6665 29.5864 32.8333 29.1665 32.8333H16.6665C15.1415 32.8333 13.679 32.2275 12.6006 31.1492C11.5223 30.0708 10.9165 28.6083 10.9165 27.0833V18.75Z" stroke="black"/>
<path d="M32.7915 24.4831C32.7915 24.4824 32.7915 24.4818 32.7915 24.4812C32.7916 23.593 33.1141 22.7351 33.699 22.0667L33.6991 22.0666L37.2192 18.0425C37.2193 18.0424 37.2194 18.0423 37.2195 18.0421C37.8688 17.3039 39.0832 17.7637 39.0832 18.7416V31.2583C39.0832 32.2402 37.868 32.6963 37.2219 31.9581L36.8457 32.2874L37.2219 31.9581L33.699 27.9331C33.699 27.9331 33.699 27.9331 33.699 27.9331C33.1141 27.2648 32.7916 26.4068 32.7915 25.5187C32.7915 25.5187 32.7915 25.5187 32.7915 25.5186V24.4833L32.7915 24.4831Z" stroke="black"/>
<path d="M68.9325 65.158L68.8683 65.5108L69.0428 65.8241C70.0263 67.5891 70.5465 69.5814 70.5412 71.5977V71.6003C70.5412 74.7756 69.3092 77.7587 67.061 80.0016L67.0593 80.0033C64.8163 82.2516 61.8333 83.4835 58.6579 83.4835C56.6028 83.4835 54.5938 82.9472 52.8114 81.9417L52.4981 81.7649L52.144 81.8282C50.9452 82.0427 49.725 82.1525 48.5058 82.1525C45.7004 82.1525 42.9865 81.6029 40.4255 80.5202L40.425 80.5201C37.9515 79.4757 35.7317 77.9813 33.8234 76.073C31.915 74.1646 30.4207 71.9448 29.3763 69.4713L29.3758 69.4702C28.2936 66.9156 27.7438 64.1964 27.7438 61.3905C27.7438 60.1951 27.8535 58.9903 28.0576 57.81L28.1176 57.4628L27.9467 57.1547C26.9739 55.4003 26.4532 53.4121 26.4532 51.3939L26.4532 51.3915C26.4494 49.8312 26.7549 48.2857 27.3521 46.8443C27.9493 45.4028 28.8263 44.094 29.9324 42.9936L29.9342 42.9918C32.1781 40.7479 35.1616 39.5109 38.3357 39.5107C40.284 39.5134 42.2022 39.9917 43.9237 40.9039L44.2349 41.0688L44.5808 41.0023C45.8667 40.755 47.192 40.6285 48.5116 40.6285C51.317 40.6285 54.0308 41.1781 56.5919 42.2608L56.5929 42.2612C59.0604 43.3013 61.3021 44.8113 63.1931 46.7072L63.194 46.7081C65.1032 48.6173 66.6029 50.8373 67.6469 53.3098L67.6473 53.3109C68.7296 55.8654 69.2793 58.5847 69.2793 61.3905C69.2793 62.6523 69.1586 63.9174 68.9325 65.158Z" stroke="black" stroke-width="2"/>
<path d="M47.4123 58.2258L47.4088 58.225C46.4507 58.0054 45.3433 57.7368 44.4751 57.2707C43.5919 56.7964 42.8548 56.0576 42.8548 54.8856C42.8548 53.8132 43.3208 52.8876 44.1917 52.2454C45.0474 51.6144 46.2596 51.28 47.7395 51.28C49.2199 51.28 50.3274 51.5346 51.1994 51.9362C52.0723 52.3383 52.679 52.8739 53.1704 53.3876C53.3384 53.5633 53.4992 53.7434 53.6483 53.9103C53.7117 53.9813 53.7729 54.0498 53.8317 54.1147C54.0358 54.3399 54.2207 54.5326 54.412 54.6928C54.7773 54.9987 55.1641 55.1865 55.731 55.1865C56.382 55.1865 56.964 54.9953 57.3721 54.6717C57.7698 54.3563 58.0196 53.9044 58.0196 53.3126C58.0196 51.8433 56.8284 50.4392 54.8783 49.3692C52.9564 48.3147 50.4467 47.6764 48.1485 47.6764C45.6235 47.6764 43.0586 48.2145 41.1424 49.4268C39.2507 50.6237 37.9778 52.4812 37.9778 55.214C37.9778 56.5628 38.22 57.8933 39.0758 59.0482C39.9308 60.2018 41.4501 61.2496 44.1448 61.9254L51.022 63.6418C51.0223 63.6419 51.0227 63.642 51.023 63.6421C52.1414 63.9172 52.9012 64.3858 53.3779 64.9839C53.8557 65.5834 54.0069 66.2599 54.0069 66.8699C54.0069 69.0119 51.9146 70.8443 48.598 70.8443C46.9887 70.8443 45.8016 70.5337 44.8776 70.0432C43.9549 69.5534 43.3301 68.9026 42.8244 68.284C42.6712 68.0967 42.5194 67.8999 42.3768 67.7151C42.2927 67.606 42.2118 67.5011 42.1357 67.4048C41.9202 67.132 41.72 66.8965 41.5082 66.7005C41.1032 66.3257 40.6534 66.0908 39.9727 66.0908C38.7439 66.0908 37.9087 66.9049 37.9087 68.0741C37.9087 70.5018 40.9736 74.2232 48.598 74.2232C52.2023 74.2232 54.8294 73.3535 56.5453 71.9669C58.2498 70.5895 59.1028 68.6646 59.1028 66.4321C59.1028 64.9748 58.7678 63.5136 57.8049 62.2733C56.8436 61.0351 55.2114 59.9589 52.5056 59.3551L47.4123 58.2258ZM47.4123 58.2258L52.505 59.3549L47.4123 58.2258Z" stroke="black"/>
</svg>
