<svg width="79" height="60" viewBox="0 0 79 60" fill="none" xmlns="http://www.w3.org/2000/svg">
<path d="M24.3785 58.6831C29.7532 58.7595 35.0306 57.2431 39.5467 54.3248V57.2502H50.1624V44.414L54.5956 39.8169L64.2571 57.2502H77L62.3885 32.3142L76.6422 16.6123H63.6011L50.1823 32.0157V2.46266H39.5467V7.13942C36.3063 3.65674 31.058 1.02979 22.8875 1.02979C5.17469 1.02979 1.83491 11.8162 1.83491 17.8661C1.83491 26.1648 6.28795 30.7819 14.0609 32.6526L25.0743 35.3591C30.8791 36.792 35.0141 37.8467 35.0141 42.1453C35.0141 47.8768 29.0502 49.25 23.5436 49.25C13.6037 49.25 11.9338 43.4389 11.9338 40.3543H1C1 47.1405 4.45902 58.6831 24.3785 58.6831ZM31.6147 26.0056L18.2755 22.7617C16.0092 22.2244 12.4706 21.3289 12.4706 17.0302C12.4706 12.1147 17.679 10.4629 22.0526 10.4629C31.9924 10.4629 32.9069 16.274 33.2051 18.7616H39.5467V28.9709C37.0467 27.617 34.3703 26.6189 31.5948 26.0056" fill="white"/>
<path d="M31.6147 26.0056L18.2755 22.7617C16.0092 22.2244 12.4706 21.3289 12.4706 17.0302C12.4706 12.1147 17.679 10.4629 22.0526 10.4629C31.9924 10.4629 32.9069 16.274 33.2051 18.7616H39.5467V28.9709C37.0467 27.617 34.3703 26.6189 31.5948 26.0056M24.3785 58.6831C29.7532 58.7595 35.0306 57.2431 39.5467 54.3248V57.2502H50.1624V44.414L54.5956 39.8169L64.2571 57.2502H77L62.3885 32.3142L76.6422 16.6123H63.6011L50.1823 32.0157V2.46266H39.5467V7.13942C36.3063 3.65674 31.058 1.02979 22.8875 1.02979C5.17469 1.02979 1.83491 11.8162 1.83491 17.8661C1.83491 26.1648 6.28795 30.7819 14.0609 32.6526L25.0743 35.3591C30.8791 36.7919 35.0141 37.8467 35.0141 42.1453C35.0141 47.8768 29.0502 49.25 23.5436 49.25C13.6037 49.25 11.9338 43.4389 11.9338 40.3543H1C1 47.1405 4.45902 58.6831 24.3785 58.6831V58.6831Z" stroke="#6C60B7" stroke-width="2"/>
</svg>
