<svg width="80" height="79" viewBox="0 0 80 79" fill="none" xmlns="http://www.w3.org/2000/svg">
<rect x="5.13654" y="32.2314" width="60" height="48.0769" rx="8" transform="rotate(-19.5673 5.13654 32.2314)" stroke="#6C60B7" stroke-width="2"/>
<path d="M63.5627 29.3995L61.1345 22.5682C60.2097 19.9662 57.3507 18.6067 54.7487 19.5315L16.1165 33.2629C13.5146 34.1878 12.155 37.0468 13.0798 39.6487L22.7923 66.974C23.7172 69.5759 26.5762 70.9355 29.1781 70.0106L67.8103 56.2792C70.4123 55.3544 71.7719 52.4953 70.847 49.8934L68.4189 43.0621" stroke="#6C60B7" stroke-dasharray="2 2"/>
<path d="M10.5266 26.5017L10.0009 25.651L10.5266 26.5017ZM37.6107 9.76416L38.1364 10.6148L37.6107 9.76416ZM6.71789 39.8577C6.9029 40.3781 7.47473 40.65 7.9951 40.465C8.51548 40.2799 8.78734 39.7081 8.60233 39.1877L6.71789 39.8577ZM11.0523 27.3523L38.1364 10.6148L37.085 8.91349L10.0009 25.651L11.0523 27.3523ZM38.1364 10.6148C42.1601 8.12826 47.4346 9.36657 49.9182 13.3745L51.6182 12.321C48.5513 7.37163 42.0441 5.84882 37.085 8.91349L38.1364 10.6148ZM10.0009 25.651C7.49017 27.2026 6.17206 29.4556 5.74869 31.9927C5.33151 34.4927 5.78494 37.2337 6.71789 39.8577L8.60233 39.1877C7.73789 36.7564 7.37885 34.3747 7.72141 32.3219C8.05777 30.3062 9.07161 28.5764 11.0523 27.3523L10.0009 25.651Z" fill="#6C60B7"/>
<path d="M46.5592 38.4072C46.0043 36.8461 46.8201 35.1306 48.3813 34.5757L67.2625 27.8646L72.1831 41.7084L53.3019 48.4196C51.7407 48.9745 50.0253 48.1587 49.4704 46.5975L46.5592 38.4072Z" stroke="#6C60B7" stroke-width="2"/>
<circle cx="56.0566" cy="39.686" r="2" fill="#6C60B7"/>
</svg>
