<svg width="325" height="182" viewBox="0 0 325 182" fill="none" xmlns="http://www.w3.org/2000/svg">
<path d="M105.21 90.8872L79.6797 170.167C79.6797 170.627 78.7826 171.615 75.1945 171.891C70.7094 172.236 35.5183 176.372 23.7879 173.27C12.0575 170.167 12.7476 166.376 13.0926 159.482C13.4376 152.588 15.8527 130.527 15.5077 120.186C15.1627 109.846 13.2487 96.5557 12.4026 92.6107C11.3675 87.7849 9.41247 83.0741 8.60745 80.2016" stroke="#C1B9F1"/>
<path d="M317.392 88.1297C315.552 93.5299 311.803 108.053 311.527 122.944C311.182 141.558 314.632 155.173 311.527 160.861C309.457 164.652 307.732 166.031 299.107 167.065C292.206 167.893 261.73 172.236 247.355 174.304L220.099 94.6789" stroke="#C1B9F1"/>
<path d="M321.532 83.9935C324.016 81.2359 324.407 75.0313 324.292 72.2738C323.142 55.6134 320.773 21.6032 320.497 18.8456C320.152 15.3986 318.082 12.2964 314.287 9.88348C311.251 7.95318 304.972 7.7004 302.212 7.8153L230.449 16.088C228.839 16.3178 224.791 17.26 221.479 19.1903C218.167 21.1206 217.109 25.5097 216.994 27.463L216.994 38.4933C217.224 38.838 217.891 39.5274 218.719 39.5274C219.547 39.5274 220.214 38.838 220.444 38.4933L220.444 27.463C221.134 26.5438 222.928 24.2918 224.584 22.6373C226.24 20.9827 229.184 20.5691 230.449 20.5691C253.335 18.2711 299.866 13.6062 302.902 13.3304C306.697 12.9858 309.112 13.3304 311.872 14.7092C314.08 15.8123 315.092 19.535 315.322 21.2585C316.242 38.2636 318.013 72.6874 317.737 74.3418C317.392 76.4098 316.702 78.4782 313.942 81.2357C311.734 83.4418 306.352 84.4529 303.937 84.6827L240.455 90.8872C237.005 91.4617 229.207 92.4039 225.619 91.5766C222.031 90.7494 220.674 88.0148 220.444 86.7509L220.444 76.0653C220.214 75.6057 219.547 74.7554 218.719 75.0312C217.891 75.3069 216.994 75.8355 216.994 76.0653L216.994 88.1297C217.454 89.9681 219.202 94.4033 222.514 97.4366C225.826 100.47 233.094 100.079 236.315 99.5048C258.855 97.2068 305.11 92.473 309.802 91.9215C315.667 91.2321 318.427 87.4404 321.532 83.9935Z" stroke="#C1B9F1"/>
<path d="M232.882 169.246L92.7902 165.342" stroke="#C1B9F1"/>
<path d="M93.4978 157.526L95.7652 149.09C96.2459 147.301 97.8916 146.076 99.7429 146.129L226.011 149.753C227.649 149.8 229.093 150.841 229.654 152.38L232.537 160.284" stroke="#C1B9F1"/>
<path d="M216.649 86.4062C215.269 82.2698 212.302 73.9282 211.474 73.6524C210.439 73.3077 114.526 69.8607 113.491 70.5501C112.663 71.1016 109.236 79.5122 107.626 83.6486" stroke="#C1B9F1"/>
<path d="M218.374 91.9213C216.534 92.266 212.233 93.7138 209.749 96.7471C207.265 99.7804 205.609 104.675 206.299 106.399L212.164 121.91" stroke="#C1B9F1"/>
<path d="M213.216 129.261C212.871 129.721 211.552 131.217 207.678 131.217C202.848 131.217 201.468 125.357 200.088 124.668C198.708 123.978 125.566 122.255 124.186 122.944C122.806 123.633 123.151 128.804 117.976 128.804C112.8 128.804 111.42 126.046 111.765 122.944C112.041 120.462 116.021 108.122 117.976 102.262C117.976 100.079 117.355 95.2994 114.871 93.6448C112.386 91.9903 108.315 89.9681 106.59 89.1638" stroke="#C1B9F1"/>
<path d="M217.012 38.6061L219.427 49.2917" stroke="#C1B9F1"/>
<path d="M220.462 38.6061L222.877 49.2917" stroke="#C1B9F1"/>
<path d="M109.351 67.4478C110.271 64.9201 112.318 59.7266 113.146 59.1751C113.974 58.6236 179.043 60.5539 211.474 61.588C211.704 61.588 212.992 61.7259 213.544 62.2774C214.096 62.8289 215.844 69.6309 216.649 72.963" stroke="#C1B9F1"/>
<path d="M110.058 43.7765C110.978 41.2488 115.078 29.738 115.906 29.1865C116.734 28.635 178.353 30.5653 210.784 31.5994C210.784 31.5994 212.164 31.5994 212.509 32.6335C212.756 33.3734 216.189 42.0552 216.994 45.3873L218.392 45.3873" stroke="#C1B9F1"/>
<path d="M269.237 47.8642C261.729 49.2089 256.709 55.3047 257.791 61.3325C258.872 67.3603 265.699 71.334 273.207 69.9893C280.715 68.6445 285.735 62.5487 284.653 56.521C283.572 50.4932 276.745 46.5194 269.237 47.8642Z" stroke="#C1B9F1"/>
<path d="M58.2512 45.7154C51.0885 43.0965 43.6775 45.8335 41.5709 51.5844C39.4643 57.3354 43.3563 64.2052 50.519 66.8242C57.6818 69.4431 65.0927 66.7061 67.1993 60.9551C69.3059 55.2042 65.414 48.3344 58.2512 45.7154Z" stroke="#C1B9F1"/>
<path d="M284.961 59.7392C281.947 56.6205 276.956 55.0394 271.721 55.9772C265.643 57.0658 261.055 61.2231 259.964 66.0689" stroke="#C1B9F1"/>
<path d="M65.8415 63.8897C64.8117 59.6784 61.2987 55.7997 56.3038 53.9734C50.5054 51.8533 44.4453 53.1335 41.0582 56.7694" stroke="#C1B9F1"/>
<path d="M284.532 55.6143C281.359 52.524 276.064 50.9974 270.48 51.9977C263.997 53.1589 259.064 57.3779 257.846 62.2465" stroke="#C1B9F1"/>
<path d="M67.552 60.1112C66.3708 55.8446 62.5676 51.8598 57.2395 49.9116C51.0542 47.6501 44.6652 48.8101 41.1572 52.4017" stroke="#C1B9F1"/>
<path d="M106.936 87.785C107.626 86.0613 108.201 76.8696 108.316 72.2737C106.591 69.5161 104.521 71.5843 104.176 72.2737C104.021 72.582 103.831 81.5804 103.486 82.9593C103.298 83.707 102.795 85.0275 101.415 86.0616C100.311 86.8889 97.2753 87.7851 96.2403 87.4404L20.683 76.0653C18.6129 75.8355 13.7138 74.8934 10.6777 72.9631C7.64154 71.0328 7.11254 66.4138 7.22755 64.6903L14.4728 12.9858C14.8178 11.4921 16.0598 8.22896 18.2679 7.12593C21.0281 5.74715 24.4781 6.09185 26.5482 6.09185C28.6183 6.09185 56.5641 10.2282 64.4993 11.607C72.4346 12.9858 100.725 17.8116 103.141 18.5009C105.556 19.1903 106.936 21.2585 107.626 23.3267C108.316 25.3949 108.316 34.7017 108.316 36.4252C108.316 37.804 110.386 37.4593 111.421 37.1146C111.651 33.8974 111.973 26.36 111.421 21.9479C110.731 16.4328 104.521 14.0199 100.725 12.9858C96.9304 11.9517 72.7796 8.84943 58.6342 6.09185C44.4887 3.33427 30.6883 0.921398 26.5482 0.921398C22.4081 0.921397 18.958 0.576701 14.4728 2.98958C9.98768 5.40246 9.29766 8.84942 8.60763 12.9858C8.05562 16.2949 3.31747 48.8343 1.01739 64.6903C1.01739 66.8734 1.56941 72.2047 3.77748 76.0653C6.53756 80.8911 13.0928 82.6146 18.9579 83.304C24.8231 83.9934 45.5238 85.7169 60.7042 88.1298C75.8847 90.5427 90.7202 93.3002 97.6204 93.6449C104.521 93.9896 106.156 89.7317 106.936 87.785Z" stroke="#C1B9F1"/>
<path d="M110.404 52.7386C111.669 50.3257 114.337 45.2932 114.889 44.4659C115.579 43.4318 210.457 46.5341 211.837 47.2235C212.941 47.775 215.287 53.8876 216.322 56.875L216.322 72.3864" stroke="#C1B9F1"/>
<path d="M217.012 49.2917L225.637 49.2917C226.787 49.6364 229.156 50.8773 229.432 53.0834C229.708 55.2894 229.547 74.6844 229.432 84.1061C229.317 84.7955 228.742 86.3811 227.362 87.2083C225.982 88.0356 224.027 88.2424 223.222 88.2424L220.807 79.625" stroke="#C1B9F1"/>
<path d="M110.403 52.394L109.368 67.2159" stroke="#C1B9F1"/>
<path d="M290.154 32.9015C286.004 32.9015 282.719 35.9608 282.719 39.6401C282.719 43.3195 286.004 46.3788 290.154 46.3788C294.305 46.3788 297.589 43.3196 297.589 39.6402C297.589 35.9608 294.305 32.9015 290.154 32.9015Z" stroke="#C1B9F1"/>
<path d="M78.8932 35.176C74.9107 34.008 70.8965 36.0189 69.8592 39.5494C68.8218 43.0799 71.111 46.9396 75.0934 48.1077C79.0759 49.2757 83.0901 47.2648 84.1275 43.7343C85.1648 40.2038 82.8756 36.3441 78.8932 35.176Z" stroke="#C1B9F1"/>
<path d="M250.823 37.7273C246.672 37.7273 243.387 40.7865 243.387 44.4659C243.387 48.1454 246.672 51.2046 250.823 51.2046C254.973 51.2046 258.258 48.1454 258.258 44.4659C258.258 40.7865 254.973 37.7273 250.823 37.7273Z" stroke="#C1B9F1"/>
<path d="M39.7941 28.7376C35.8116 27.5695 31.7974 29.5804 30.76 33.1109C29.7227 36.6414 32.0119 40.5011 35.9943 41.6692C39.9768 42.8372 43.991 40.8263 45.0283 37.2958C46.0657 33.7653 43.7765 29.9056 39.7941 28.7376Z" stroke="#C1B9F1"/>
<path d="M289.159 64.1377C285.14 65.1732 282.724 68.955 283.644 72.5179C284.564 76.0808 288.509 78.2235 292.528 77.188C296.547 76.1525 298.963 72.3707 298.043 68.8078C297.124 65.2449 293.178 63.1021 289.159 64.1377Z" stroke="#C1B9F1"/>
<path d="M73.4752 66.4267C69.3269 66.2892 65.9425 69.238 65.8205 72.9154C65.6984 76.5928 68.8798 79.7591 73.0281 79.8966C77.1764 80.034 80.5607 77.0852 80.6828 73.4078C80.8049 69.7305 77.6235 66.5641 73.4752 66.4267Z" stroke="#C1B9F1"/>
<path d="M53.2632 72.4752C51.9896 72.1547 50.8473 72.8134 50.604 73.7787C50.3607 74.7441 51.0544 75.8647 52.328 76.1852C53.6017 76.5056 54.7439 75.847 54.9872 74.8816C55.2306 73.9163 54.5368 72.7957 53.2632 72.4752Z" stroke="#C1B9F1"/>
<path d="M57.2329 36.4954C55.9593 36.1749 54.8171 36.8336 54.5737 37.7989C54.3304 38.7643 55.0241 39.8849 56.2978 40.2054C57.5714 40.5258 58.7136 39.8672 58.957 38.9018C59.2003 37.9365 58.5066 36.8158 57.2329 36.4954Z" stroke="#C1B9F1"/>
<path d="M252.168 68.4298C248.049 67.9178 244.411 70.5484 243.957 74.1997C243.502 77.8509 246.383 81.2919 250.502 81.804C254.621 82.316 258.259 79.6853 258.713 76.0341C259.168 72.3828 256.287 68.9418 252.168 68.4298Z" stroke="#C1B9F1"/>
<path d="M35.9924 60.5447C32.1848 58.8944 27.9528 60.3947 26.487 63.7703C25.0212 67.1459 26.816 71.2584 30.6236 72.9088C34.4311 74.5591 38.6631 73.0588 40.1289 69.6832C41.5947 66.3076 39.7999 62.1951 35.9924 60.5447Z" stroke="#C1B9F1"/>
<path d="M289.168 79.5484C298.921 78.5647 306.213 70.1451 305.795 60.3522L304.87 38.7082C304.489 29.7917 296.676 23.0381 287.798 23.9512L254.429 27.3831C243.315 28.5262 234.928 37.9924 235.132 49.1639L235.539 71.3627C235.673 78.6699 242.02 84.3042 249.291 83.5708L289.168 79.5484Z" stroke="#C1B9F1"/>
<path d="M68.7711 83.074C79.1879 84.6401 88.8125 77.2075 89.9289 66.7349L92.1552 45.8513C93.1861 36.1814 86.5518 27.3679 76.9729 25.6817L45.8208 20.198C33.3336 17.9999 21.6603 27.0264 20.6485 39.6629L19.3119 56.355C18.4526 67.0864 26.0438 76.6501 36.6919 78.251L68.7711 83.074Z" stroke="#C1B9F1"/>
<path d="M84.1824 85.4847V85.4847C86.7862 83.9672 88.5159 81.305 88.8438 78.3102L91.91 50.3005C92.9979 40.3637 86.1974 31.2872 76.3538 29.5378L45.8643 24.1191C33.1035 21.8512 21.1518 31.0473 20.0767 43.9611L17.8381 70.8487C17.6841 72.6983 18.3525 74.5216 19.6654 75.8332V75.8332" stroke="#C1B9F1"/>
<path d="M289.168 85.7529C298.921 84.7692 306.213 76.3497 305.795 66.5567L304.87 44.9128C304.489 35.9963 296.676 29.2426 287.798 30.1557L254.429 33.5876C243.315 34.7307 234.928 44.1969 235.132 55.3684L235.539 77.5672C235.673 84.8744 242.02 90.5088 249.291 89.7753L289.168 85.7529Z" stroke="#C1B9F1"/>
<path d="M302.229 58.4091C301.362 58.4091 300.659 59.1116 300.659 59.9773C300.659 60.8429 301.362 61.5455 302.229 61.5455C303.097 61.5455 303.799 60.8429 303.799 59.9773C303.799 59.1116 303.097 58.4091 302.229 58.4091Z" stroke="#C1B9F1"/>
<path d="M23.2872 53.2903C22.4317 53.1464 21.6222 53.7226 21.4783 54.5763C21.3344 55.4299 21.9104 56.2393 22.7659 56.3832C23.6214 56.5271 24.4309 55.9509 24.5748 55.0972C24.7187 54.2436 24.1427 53.4343 23.2872 53.2903Z" stroke="#C1B9F1"/>
<path d="M301.539 49.447C300.672 49.447 299.969 50.1495 299.969 51.0152C299.969 51.8808 300.672 52.5834 301.539 52.5834C302.407 52.5834 303.109 51.8808 303.109 51.0152C303.109 50.1495 302.407 49.447 301.539 49.447Z" stroke="#C1B9F1"/>
<path d="M24.0963 44.3383C23.2408 44.1944 22.4313 44.7706 22.2874 45.6243C22.1435 46.4779 22.7195 47.2872 23.575 47.4312C24.4305 47.5751 25.24 46.9989 25.3839 46.1452C25.5278 45.2916 24.9517 44.4823 24.0963 44.3383Z" stroke="#C1B9F1"/>
<path d="M200.796 48.4849C199.942 48.7161 199.172 49.1144 198.533 49.6364C197.379 50.5807 196.656 51.93 196.656 53.4281C196.656 56.2836 199.282 58.5985 202.521 58.5985C205.76 58.5985 208.386 56.2836 208.386 53.4281C208.386 51.3315 206.971 49.5263 204.936 48.7149" stroke="#C1B9F1" stroke-linecap="round"/>
<path d="M196.656 53.4281C196.656 54.4622 196.656 54.8068 196.656 55.4962C196.656 58.3518 199.282 60.6667 202.521 60.6667C205.76 60.6667 208.386 58.3518 208.386 55.4962C208.386 55.1515 208.386 54.8068 208.386 53.7728" stroke="#C1B9F1" stroke-linecap="round"/>
<rect x="-0.5" y="-0.5" width="7.27274" height="3.14013" rx="1.57006" transform="matrix(1.39071e-07 -1 -1 -1.39071e-07 203.936 54.1516)" stroke="#C1B9F1"/>
<path d="M180.786 48.4849C179.932 48.7161 179.162 49.1144 178.523 49.6364C177.368 50.5807 176.646 51.93 176.646 53.4281C176.646 56.2836 179.272 58.5985 182.511 58.5985C185.75 58.5985 188.376 56.2836 188.376 53.4281C188.376 51.3315 186.96 49.5263 184.926 48.7149" stroke="#C1B9F1" stroke-linecap="round"/>
<path d="M176.646 53.4281C176.646 54.4622 176.646 54.8068 176.646 55.4962C176.646 58.3518 179.272 60.6667 182.511 60.6667C185.75 60.6667 188.376 58.3518 188.376 55.4962C188.376 55.1515 188.376 54.8068 188.376 53.7728" stroke="#C1B9F1" stroke-linecap="round"/>
<rect x="-0.5" y="-0.5" width="7.27274" height="3.14012" rx="1.57006" transform="matrix(1.39071e-07 -1 -1 -1.39071e-07 183.926 54.1516)" stroke="#C1B9F1"/>
<path d="M160.775 47.7955C159.921 48.0267 159.151 48.425 158.512 48.947C157.358 49.8913 156.635 51.2406 156.635 52.7387C156.635 55.5942 159.261 57.9091 162.5 57.9091C165.739 57.9091 168.365 55.5942 168.365 52.7387C168.365 50.6421 166.95 48.837 164.915 48.0255" stroke="#C1B9F1" stroke-linecap="round"/>
<path d="M156.635 52.7387C156.635 53.7728 156.635 54.1175 156.635 54.8068C156.635 57.6624 159.261 59.9773 162.5 59.9773C165.739 59.9773 168.365 57.6624 168.365 54.8068C168.365 54.4622 168.365 54.1175 168.365 53.0834" stroke="#C1B9F1" stroke-linecap="round"/>
<rect x="-0.5" y="-0.5" width="7.27274" height="3.14012" rx="1.57006" transform="matrix(1.39071e-07 -1 -1 -1.39071e-07 163.915 53.4622)" stroke="#C1B9F1"/>
<path d="M140.074 47.1061C139.221 47.3373 138.45 47.7356 137.812 48.2576C136.657 49.2019 135.934 50.5512 135.934 52.0493C135.934 54.9048 138.56 57.2197 141.799 57.2197C145.039 57.2197 147.665 54.9048 147.665 52.0493C147.665 49.9527 146.249 48.1475 144.214 47.3361" stroke="#C1B9F1" stroke-linecap="round"/>
<path d="M135.934 52.0493C135.934 53.0834 135.934 53.4281 135.934 54.1175C135.934 56.973 138.56 59.2879 141.799 59.2879C145.039 59.2879 147.665 56.973 147.665 54.1175C147.665 53.7728 147.665 53.4281 147.665 52.394" stroke="#C1B9F1" stroke-linecap="round"/>
<rect x="-0.5" y="-0.5" width="7.27274" height="3.14014" rx="1.57007" transform="matrix(1.39071e-07 -1 -1 -1.39071e-07 143.214 52.7728)" stroke="#C1B9F1"/>
<path d="M119.374 46.4167C118.52 46.6479 117.75 47.0462 117.111 47.5682C115.956 48.5125 115.233 49.8618 115.233 51.3599C115.233 54.2154 117.859 56.5303 121.099 56.5303C124.338 56.5303 126.964 54.2154 126.964 51.3599C126.964 49.2633 125.548 47.4582 123.514 46.6467" stroke="#C1B9F1" stroke-linecap="round"/>
<path d="M115.233 51.3599C115.233 52.394 115.233 52.7387 115.233 53.4281C115.233 56.2836 117.859 58.5985 121.099 58.5985C124.338 58.5985 126.964 56.2836 126.964 53.4281C126.964 53.0834 126.964 52.7387 126.964 51.7046" stroke="#C1B9F1" stroke-linecap="round"/>
<rect x="-0.5" y="-0.5" width="7.27274" height="3.14012" rx="1.57006" transform="matrix(1.39071e-07 -1 -1 -1.39071e-07 122.514 52.0834)" stroke="#C1B9F1"/>
<path d="M102.468 85.1401C100.398 85.0252 96.9481 83.9682 96.9481 80.6591C96.9481 77.35 98.3281 57.2197 99.0182 47.5682C99.4782 46.7639 101.088 45.1553 103.848 45.1553C106.608 45.1553 109.599 45.8447 110.749 46.1894L110.404 52.3939" stroke="#C1B9F1"/>
<path d="M108.333 36.8826L106.608 45.1553" stroke="#C1B9F1"/>
<path d="M111.438 37.2273L109.713 45.8447" stroke="#C1B9F1"/>
<path d="M229.432 83.072C229.087 82.1528 228.052 80.2454 226.672 79.9697M96.948 81.3485C96.948 80.1995 97.293 78.7632 99.0181 77.9015C100.398 77.2121 101.778 77.2121 102.123 77.2121" stroke="#C1B9F1" stroke-linecap="round"/>
<path d="M79.3524 170.97C79.3524 174.777 82.4417 177.864 86.2526 177.864C90.0635 177.864 93.1528 174.777 93.1528 170.97L93.1528 156.492C93.1528 152.685 90.0635 149.598 86.2526 149.598" stroke="#C1B9F1"/>
<path d="M225.137 126.159L225.137 111.682C225.137 108.151 222.272 105.288 218.737 105.288C215.201 105.288 212.336 108.151 212.336 111.682L212.336 126.159C212.336 129.69 215.201 132.553 218.737 132.553C222.272 132.553 225.137 129.69 225.137 126.159Z" stroke="#C1B9F1"/>
<path d="M96.6029 117.197L96.6029 124.78C96.6029 128.588 99.6922 131.674 103.503 131.674C107.314 131.674 110.403 128.588 110.403 124.78L110.403 110.303C110.403 106.496 107.314 103.409 103.503 103.409C102.522 103.409 101.588 103.614 100.743 103.983" stroke="#C1B9F1"/>
<path d="M117.649 123.212C116.085 123.212 115.044 124.179 115.044 125.125C115.044 126.071 116.085 127.038 117.649 127.038C119.212 127.038 120.254 126.071 120.254 125.125C120.254 124.179 119.212 123.212 117.649 123.212Z" stroke="#C1B9F1"/>
<path d="M208.041 125.28C206.478 125.28 205.436 126.247 205.436 127.193C205.436 128.14 206.478 129.106 208.041 129.106C209.605 129.106 210.646 128.14 210.646 127.193C210.646 126.247 209.605 125.28 208.041 125.28Z" stroke="#C1B9F1"/>
<path d="M102.747 132.869C101.313 137.25 104.502 141.775 109.113 141.903L215.254 144.854C219.932 144.984 223.38 140.522 222.071 136.034L220.807 132.869" stroke="#C1B9F1"/>
<path d="M229.423 165.636C229.128 165.628 228.882 165.862 228.874 166.156C228.867 166.45 229.099 166.696 229.395 166.704C229.691 166.712 229.936 166.479 229.944 166.184C229.952 165.89 229.719 165.644 229.423 165.636Z" stroke="#C1B9F1"/>
<path d="M217.007 165.308C216.711 165.3 216.466 165.533 216.458 165.828C216.451 166.122 216.683 166.368 216.979 166.376C217.275 166.384 217.52 166.15 217.528 165.856C217.536 165.562 217.303 165.316 217.007 165.308Z" stroke="#C1B9F1"/>
<path d="M204.591 164.98C204.295 164.972 204.05 165.205 204.042 165.5C204.035 165.794 204.267 166.04 204.563 166.048C204.859 166.055 205.104 165.822 205.112 165.528C205.12 165.233 204.887 164.988 204.591 164.98Z" stroke="#C1B9F1"/>
<path d="M192.175 164.652C191.879 164.644 191.634 164.877 191.626 165.172C191.619 165.466 191.851 165.712 192.147 165.72C192.443 165.728 192.688 165.494 192.696 165.2C192.704 164.906 192.471 164.66 192.175 164.652Z" stroke="#C1B9F1"/>
<path d="M179.759 164.324C179.463 164.316 179.218 164.549 179.21 164.844C179.202 165.138 179.435 165.384 179.731 165.392C180.027 165.399 180.272 165.166 180.28 164.872C180.288 164.577 180.055 164.332 179.759 164.324Z" stroke="#C1B9F1"/>
<path d="M167.343 163.995C167.047 163.987 166.802 164.22 166.794 164.515C166.786 164.809 167.019 165.055 167.315 165.063C167.611 165.07 167.856 164.837 167.864 164.543C167.871 164.248 167.639 164.003 167.343 163.995Z" stroke="#C1B9F1"/>
<path d="M154.927 163.668C154.631 163.66 154.386 163.893 154.378 164.187C154.37 164.482 154.603 164.728 154.898 164.735C155.194 164.743 155.44 164.51 155.447 164.216C155.455 163.921 155.223 163.675 154.927 163.668Z" stroke="#C1B9F1"/>
<path d="M142.511 163.339C142.215 163.332 141.97 163.565 141.962 163.859C141.954 164.154 142.187 164.399 142.482 164.407C142.778 164.415 143.024 164.182 143.031 163.888C143.039 163.593 142.807 163.347 142.511 163.339Z" stroke="#C1B9F1"/>
<path d="M130.095 163.012C129.799 163.004 129.554 163.237 129.546 163.531C129.538 163.826 129.771 164.072 130.066 164.079C130.362 164.087 130.608 163.854 130.615 163.56C130.623 163.265 130.391 163.019 130.095 163.012Z" stroke="#C1B9F1"/>
<path d="M117.679 162.683C117.383 162.676 117.138 162.909 117.13 163.203C117.122 163.498 117.355 163.743 117.65 163.751C117.946 163.759 118.192 163.526 118.199 163.231C118.207 162.937 117.975 162.691 117.679 162.683Z" stroke="#C1B9F1"/>
<path d="M105.263 162.356C104.967 162.348 104.721 162.581 104.714 162.875C104.706 163.17 104.939 163.416 105.234 163.423C105.53 163.431 105.776 163.198 105.783 162.904C105.791 162.609 105.558 162.363 105.263 162.356Z" stroke="#C1B9F1"/>
<path d="M225.285 165.527C224.989 165.519 224.743 165.752 224.736 166.047C224.728 166.341 224.961 166.587 225.256 166.595C225.552 166.602 225.798 166.369 225.805 166.075C225.813 165.78 225.58 165.535 225.285 165.527Z" stroke="#C1B9F1"/>
<path d="M212.869 165.199C212.573 165.191 212.327 165.424 212.32 165.718C212.312 166.013 212.545 166.259 212.84 166.266C213.136 166.274 213.382 166.041 213.389 165.747C213.397 165.452 213.164 165.206 212.869 165.199Z" stroke="#C1B9F1"/>
<path d="M200.453 164.871C200.157 164.863 199.911 165.096 199.904 165.391C199.896 165.685 200.129 165.931 200.424 165.939C200.72 165.946 200.966 165.713 200.973 165.419C200.981 165.124 200.748 164.879 200.453 164.871Z" stroke="#C1B9F1"/>
<path d="M188.037 164.543C187.741 164.535 187.495 164.768 187.488 165.062C187.48 165.357 187.713 165.603 188.008 165.61C188.304 165.618 188.55 165.385 188.557 165.091C188.565 164.796 188.332 164.55 188.037 164.543Z" stroke="#C1B9F1"/>
<path d="M175.621 164.215C175.325 164.207 175.079 164.44 175.072 164.734C175.064 165.029 175.297 165.275 175.592 165.282C175.888 165.29 176.134 165.057 176.141 164.763C176.149 164.468 175.916 164.223 175.621 164.215Z" stroke="#C1B9F1"/>
<path d="M163.205 163.886C162.909 163.879 162.663 164.112 162.656 164.406C162.648 164.701 162.88 164.946 163.176 164.954C163.472 164.962 163.717 164.729 163.725 164.435C163.733 164.14 163.5 163.894 163.205 163.886Z" stroke="#C1B9F1"/>
<path d="M150.789 163.559C150.493 163.551 150.247 163.784 150.24 164.078C150.232 164.373 150.464 164.619 150.76 164.626C151.056 164.634 151.301 164.401 151.309 164.107C151.317 163.812 151.084 163.566 150.789 163.559Z" stroke="#C1B9F1"/>
<path d="M138.373 163.23C138.077 163.223 137.831 163.456 137.824 163.75C137.816 164.045 138.048 164.29 138.344 164.298C138.64 164.306 138.885 164.073 138.893 163.778C138.901 163.484 138.668 163.238 138.373 163.23Z" stroke="#C1B9F1"/>
<path d="M125.957 162.903C125.661 162.895 125.415 163.128 125.408 163.422C125.4 163.717 125.632 163.963 125.928 163.97C126.224 163.978 126.469 163.745 126.477 163.451C126.485 163.156 126.252 162.91 125.957 162.903Z" stroke="#C1B9F1"/>
<path d="M113.54 162.574C113.244 162.567 112.999 162.8 112.991 163.094C112.983 163.389 113.216 163.634 113.512 163.642C113.808 163.65 114.053 163.417 114.061 163.122C114.069 162.828 113.836 162.582 113.54 162.574Z" stroke="#C1B9F1"/>
<path d="M101.124 162.246C100.828 162.239 100.583 162.472 100.575 162.766C100.567 163.061 100.8 163.306 101.096 163.314C101.392 163.322 101.637 163.089 101.645 162.794C101.653 162.5 101.42 162.254 101.124 162.246Z" stroke="#C1B9F1"/>
<path d="M221.146 165.417C220.85 165.41 220.605 165.643 220.597 165.937C220.589 166.232 220.822 166.477 221.118 166.485C221.414 166.493 221.659 166.26 221.667 165.965C221.674 165.671 221.442 165.425 221.146 165.417Z" stroke="#C1B9F1"/>
<path d="M208.73 165.089C208.434 165.081 208.189 165.315 208.181 165.609C208.173 165.903 208.406 166.149 208.702 166.157C208.998 166.165 209.243 165.932 209.251 165.637C209.258 165.343 209.026 165.097 208.73 165.089Z" stroke="#C1B9F1"/>
<path d="M196.314 164.761C196.018 164.754 195.773 164.987 195.765 165.281C195.757 165.576 195.99 165.821 196.286 165.829C196.582 165.837 196.827 165.604 196.835 165.309C196.842 165.015 196.61 164.769 196.314 164.761Z" stroke="#C1B9F1"/>
<path d="M183.898 164.434C183.602 164.426 183.357 164.659 183.349 164.953C183.341 165.248 183.574 165.493 183.87 165.501C184.165 165.509 184.411 165.276 184.419 164.982C184.426 164.687 184.194 164.441 183.898 164.434Z" stroke="#C1B9F1"/>
<path d="M171.482 164.106C171.186 164.098 170.941 164.331 170.933 164.625C170.925 164.92 171.158 165.166 171.454 165.173C171.749 165.181 171.995 164.948 172.003 164.654C172.01 164.359 171.778 164.113 171.482 164.106Z" stroke="#C1B9F1"/>
<path d="M159.066 163.777C158.77 163.77 158.525 164.003 158.517 164.297C158.509 164.592 158.742 164.837 159.038 164.845C159.333 164.853 159.579 164.62 159.587 164.325C159.594 164.031 159.362 163.785 159.066 163.777Z" stroke="#C1B9F1"/>
<path d="M146.65 163.449C146.354 163.441 146.109 163.675 146.101 163.969C146.093 164.263 146.326 164.509 146.622 164.517C146.917 164.525 147.163 164.292 147.171 163.997C147.178 163.703 146.946 163.457 146.65 163.449Z" stroke="#C1B9F1"/>
<path d="M134.233 163.121C133.938 163.113 133.692 163.346 133.684 163.641C133.677 163.935 133.909 164.181 134.205 164.189C134.501 164.197 134.746 163.963 134.754 163.669C134.762 163.375 134.529 163.129 134.233 163.121Z" stroke="#C1B9F1"/>
<path d="M121.817 162.793C121.522 162.785 121.276 163.018 121.268 163.313C121.261 163.607 121.493 163.853 121.789 163.861C122.085 163.869 122.33 163.636 122.338 163.341C122.346 163.047 122.113 162.801 121.817 162.793Z" stroke="#C1B9F1"/>
<path d="M109.401 162.465C109.106 162.457 108.86 162.69 108.852 162.985C108.845 163.279 109.077 163.525 109.373 163.533C109.669 163.541 109.914 163.307 109.922 163.013C109.93 162.719 109.697 162.473 109.401 162.465Z" stroke="#C1B9F1"/>
<path d="M96.9854 162.137C96.6896 162.129 96.4442 162.362 96.4364 162.657C96.4286 162.951 96.6613 163.197 96.9571 163.205C97.2529 163.213 97.4983 162.98 97.5061 162.685C97.5138 162.391 97.2812 162.145 96.9854 162.137Z" stroke="#C1B9F1"/>
<path d="M219.763 162.153C219.467 162.145 219.222 162.378 219.214 162.672C219.206 162.967 219.439 163.213 219.735 163.22C220.031 163.228 220.276 162.995 220.284 162.701C220.292 162.406 220.059 162.16 219.763 162.153Z" stroke="#C1B9F1"/>
<path d="M207.347 161.824C207.051 161.817 206.806 162.05 206.798 162.344C206.79 162.639 207.023 162.884 207.319 162.892C207.615 162.9 207.86 162.667 207.868 162.372C207.876 162.078 207.643 161.832 207.347 161.824Z" stroke="#C1B9F1"/>
<path d="M194.931 161.496C194.635 161.489 194.39 161.722 194.382 162.016C194.374 162.311 194.607 162.556 194.903 162.564C195.199 162.572 195.444 162.339 195.452 162.045C195.46 161.75 195.227 161.504 194.931 161.496Z" stroke="#C1B9F1"/>
<path d="M182.515 161.168C182.219 161.16 181.974 161.394 181.966 161.688C181.958 161.982 182.191 162.228 182.487 162.236C182.783 162.244 183.028 162.011 183.036 161.716C183.044 161.422 182.811 161.176 182.515 161.168Z" stroke="#C1B9F1"/>
<path d="M170.099 160.839C169.803 160.832 169.558 161.065 169.55 161.359C169.542 161.654 169.775 161.899 170.071 161.907C170.367 161.915 170.612 161.682 170.62 161.387C170.627 161.093 170.395 160.847 170.099 160.839Z" stroke="#C1B9F1"/>
<path d="M157.683 160.512C157.387 160.504 157.141 160.738 157.134 161.032C157.126 161.326 157.359 161.572 157.654 161.58C157.95 161.588 158.196 161.355 158.203 161.06C158.211 160.766 157.978 160.52 157.683 160.512Z" stroke="#C1B9F1"/>
<path d="M145.267 160.184C144.971 160.176 144.725 160.409 144.718 160.704C144.71 160.998 144.943 161.244 145.238 161.252C145.534 161.26 145.78 161.026 145.787 160.732C145.795 160.438 145.562 160.192 145.267 160.184Z" stroke="#C1B9F1"/>
<path d="M132.851 159.856C132.555 159.848 132.309 160.081 132.302 160.376C132.294 160.67 132.527 160.916 132.822 160.924C133.118 160.932 133.363 160.699 133.371 160.404C133.379 160.11 133.146 159.864 132.851 159.856Z" stroke="#C1B9F1"/>
<path d="M120.435 159.528C120.139 159.52 119.893 159.753 119.886 160.048C119.878 160.342 120.11 160.588 120.406 160.596C120.702 160.604 120.947 160.37 120.955 160.076C120.963 159.782 120.73 159.536 120.435 159.528Z" stroke="#C1B9F1"/>
<path d="M108.019 159.2C107.723 159.192 107.477 159.425 107.47 159.72C107.462 160.014 107.694 160.26 107.99 160.268C108.286 160.276 108.531 160.043 108.539 159.748C108.547 159.454 108.314 159.208 108.019 159.2Z" stroke="#C1B9F1"/>
<path d="M228.041 162.371C227.745 162.364 227.499 162.597 227.492 162.891C227.484 163.186 227.716 163.431 228.012 163.439C228.308 163.447 228.553 163.214 228.561 162.919C228.569 162.625 228.336 162.379 228.041 162.371Z" stroke="#C1B9F1"/>
<path d="M215.624 162.043C215.329 162.035 215.083 162.268 215.076 162.563C215.068 162.857 215.3 163.103 215.596 163.111C215.892 163.119 216.137 162.886 216.145 162.591C216.153 162.297 215.92 162.051 215.624 162.043Z" stroke="#C1B9F1"/>
<path d="M203.208 161.715C202.913 161.707 202.667 161.941 202.66 162.235C202.652 162.53 202.884 162.775 203.18 162.783C203.476 162.791 203.721 162.558 203.729 162.263C203.737 161.969 203.504 161.723 203.208 161.715Z" stroke="#C1B9F1"/>
<path d="M190.792 161.387C190.496 161.379 190.251 161.612 190.243 161.907C190.235 162.201 190.468 162.447 190.764 162.455C191.06 162.463 191.305 162.23 191.313 161.935C191.32 161.641 191.088 161.395 190.792 161.387Z" stroke="#C1B9F1"/>
<path d="M178.376 161.059C178.081 161.051 177.835 161.285 177.827 161.579C177.82 161.873 178.052 162.119 178.348 162.127C178.644 162.135 178.889 161.902 178.897 161.607C178.905 161.313 178.672 161.067 178.376 161.059Z" stroke="#C1B9F1"/>
<path d="M165.96 160.731C165.665 160.723 165.419 160.956 165.411 161.251C165.404 161.545 165.636 161.791 165.932 161.799C166.228 161.807 166.473 161.573 166.481 161.279C166.489 160.985 166.256 160.739 165.96 160.731Z" stroke="#C1B9F1"/>
<path d="M153.544 160.403C153.248 160.395 153.003 160.628 152.995 160.923C152.987 161.217 153.22 161.463 153.516 161.471C153.811 161.479 154.057 161.246 154.065 160.951C154.072 160.657 153.84 160.411 153.544 160.403Z" stroke="#C1B9F1"/>
<path d="M141.128 160.075C140.832 160.067 140.587 160.3 140.579 160.595C140.571 160.889 140.804 161.135 141.1 161.143C141.395 161.151 141.641 160.917 141.649 160.623C141.656 160.329 141.424 160.083 141.128 160.075Z" stroke="#C1B9F1"/>
<path d="M128.712 159.747C128.416 159.739 128.171 159.972 128.163 160.267C128.155 160.561 128.388 160.807 128.684 160.815C128.979 160.823 129.225 160.59 129.233 160.295C129.24 160.001 129.008 159.755 128.712 159.747Z" stroke="#C1B9F1"/>
<path d="M116.296 159.419C116 159.411 115.755 159.644 115.747 159.939C115.739 160.233 115.972 160.479 116.268 160.487C116.563 160.495 116.809 160.261 116.817 159.967C116.824 159.672 116.592 159.427 116.296 159.419Z" stroke="#C1B9F1"/>
<path d="M103.88 159.091C103.584 159.083 103.339 159.316 103.331 159.611C103.323 159.905 103.556 160.151 103.852 160.159C104.147 160.167 104.393 159.933 104.401 159.639C104.408 159.345 104.176 159.099 103.88 159.091Z" stroke="#C1B9F1"/>
<path d="M223.902 162.262C223.606 162.254 223.361 162.487 223.353 162.782C223.345 163.076 223.578 163.322 223.874 163.33C224.169 163.338 224.415 163.104 224.423 162.81C224.43 162.516 224.198 162.27 223.902 162.262Z" stroke="#C1B9F1"/>
<path d="M211.486 161.934C211.19 161.926 210.945 162.159 210.937 162.454C210.929 162.748 211.162 162.994 211.458 163.002C211.753 163.009 211.999 162.776 212.007 162.482C212.014 162.187 211.782 161.942 211.486 161.934Z" stroke="#C1B9F1"/>
<path d="M199.07 161.606C198.774 161.598 198.529 161.831 198.521 162.126C198.513 162.42 198.746 162.666 199.042 162.674C199.337 162.682 199.583 162.448 199.591 162.154C199.598 161.859 199.366 161.614 199.07 161.606Z" stroke="#C1B9F1"/>
<path d="M186.653 161.278C186.358 161.27 186.112 161.503 186.104 161.798C186.097 162.092 186.329 162.338 186.625 162.346C186.921 162.354 187.166 162.12 187.174 161.826C187.182 161.532 186.949 161.286 186.653 161.278Z" stroke="#C1B9F1"/>
<path d="M174.237 160.95C173.941 160.942 173.696 161.175 173.688 161.47C173.681 161.764 173.913 162.01 174.209 162.018C174.505 162.026 174.75 161.793 174.758 161.498C174.766 161.204 174.533 160.958 174.237 160.95Z" stroke="#C1B9F1"/>
<path d="M161.822 160.622C161.526 160.614 161.281 160.847 161.273 161.142C161.265 161.436 161.498 161.682 161.793 161.69C162.089 161.698 162.335 161.464 162.342 161.17C162.35 160.876 162.118 160.63 161.822 160.622Z" stroke="#C1B9F1"/>
<path d="M149.406 160.294C149.11 160.286 148.865 160.519 148.857 160.814C148.849 161.108 149.082 161.354 149.377 161.362C149.673 161.369 149.919 161.136 149.926 160.842C149.934 160.547 149.702 160.302 149.406 160.294Z" stroke="#C1B9F1"/>
<path d="M136.989 159.966C136.693 159.958 136.448 160.191 136.44 160.485C136.433 160.78 136.665 161.026 136.961 161.033C137.257 161.041 137.502 160.808 137.51 160.514C137.518 160.219 137.285 159.973 136.989 159.966Z" stroke="#C1B9F1"/>
<path d="M124.573 159.638C124.277 159.63 124.032 159.863 124.024 160.157C124.016 160.452 124.249 160.698 124.545 160.705C124.841 160.713 125.086 160.48 125.094 160.186C125.102 159.891 124.869 159.645 124.573 159.638Z" stroke="#C1B9F1"/>
<path d="M112.157 159.309C111.861 159.302 111.616 159.535 111.608 159.829C111.6 160.124 111.833 160.369 112.129 160.377C112.425 160.385 112.67 160.152 112.678 159.858C112.686 159.563 112.453 159.317 112.157 159.309Z" stroke="#C1B9F1"/>
<path d="M99.7412 158.982C99.4454 158.974 99.2 159.207 99.1922 159.501C99.1845 159.796 99.4171 160.042 99.7129 160.049C100.009 160.057 100.254 159.824 100.262 159.53C100.27 159.235 100.037 158.989 99.7412 158.982Z" stroke="#C1B9F1"/>
<path d="M95.5547 158.982C95.2589 158.974 95.0135 159.207 95.0057 159.501C94.9979 159.796 95.2306 160.042 95.5264 160.049C95.8222 160.057 96.0676 159.824 96.0754 159.53C96.0832 159.235 95.8505 158.989 95.5547 158.982Z" stroke="#C1B9F1"/>
<path d="M230.109 159.034C229.814 159.026 229.568 159.259 229.56 159.554C229.553 159.848 229.785 160.094 230.081 160.102C230.377 160.109 230.622 159.876 230.63 159.582C230.638 159.287 230.405 159.042 230.109 159.034Z" stroke="#C1B9F1"/>
<path d="M217.693 158.706C217.398 158.698 217.152 158.931 217.144 159.225C217.137 159.52 217.369 159.766 217.665 159.773C217.961 159.781 218.206 159.548 218.214 159.254C218.222 158.959 217.989 158.713 217.693 158.706Z" stroke="#C1B9F1"/>
<path d="M205.277 158.377C204.982 158.37 204.736 158.603 204.728 158.897C204.721 159.192 204.953 159.437 205.249 159.445C205.545 159.453 205.79 159.22 205.798 158.925C205.806 158.631 205.573 158.385 205.277 158.377Z" stroke="#C1B9F1"/>
<path d="M192.861 158.05C192.565 158.042 192.32 158.275 192.312 158.569C192.305 158.864 192.537 159.11 192.833 159.117C193.129 159.125 193.374 158.892 193.382 158.598C193.39 158.303 193.157 158.057 192.861 158.05Z" stroke="#C1B9F1"/>
<path d="M180.445 157.721C180.149 157.714 179.904 157.947 179.896 158.241C179.889 158.536 180.121 158.781 180.417 158.789C180.713 158.797 180.958 158.564 180.966 158.269C180.974 157.975 180.741 157.729 180.445 157.721Z" stroke="#C1B9F1"/>
<path d="M168.029 157.392C167.733 157.385 167.488 157.618 167.48 157.912C167.472 158.207 167.705 158.452 168.001 158.46C168.297 158.468 168.542 158.235 168.55 157.94C168.557 157.646 168.325 157.4 168.029 157.392Z" stroke="#C1B9F1"/>
<path d="M155.613 157.065C155.317 157.057 155.072 157.291 155.064 157.585C155.056 157.879 155.289 158.125 155.585 158.133C155.88 158.141 156.126 157.908 156.133 157.613C156.141 157.319 155.909 157.073 155.613 157.065Z" stroke="#C1B9F1"/>
<path d="M143.197 156.737C142.901 156.729 142.656 156.962 142.648 157.257C142.64 157.551 142.873 157.797 143.168 157.805C143.464 157.813 143.71 157.58 143.717 157.285C143.725 156.991 143.493 156.745 143.197 156.737Z" stroke="#C1B9F1"/>
<path d="M130.781 156.409C130.485 156.401 130.24 156.635 130.232 156.929C130.224 157.223 130.457 157.469 130.752 157.477C131.048 157.485 131.294 157.252 131.301 156.957C131.309 156.663 131.077 156.417 130.781 156.409Z" stroke="#C1B9F1"/>
<path d="M118.365 156.081C118.069 156.073 117.824 156.306 117.816 156.601C117.808 156.895 118.041 157.141 118.336 157.149C118.632 157.157 118.878 156.923 118.885 156.629C118.893 156.335 118.661 156.089 118.365 156.081Z" stroke="#C1B9F1"/>
<path d="M105.949 155.753C105.653 155.745 105.408 155.978 105.4 156.273C105.392 156.567 105.625 156.813 105.92 156.821C106.216 156.829 106.462 156.596 106.469 156.301C106.477 156.007 106.245 155.761 105.949 155.753Z" stroke="#C1B9F1"/>
<path d="M225.971 158.924C225.675 158.917 225.43 159.15 225.422 159.444C225.414 159.739 225.647 159.984 225.942 159.992C226.238 160 226.484 159.767 226.491 159.472C226.499 159.178 226.267 158.932 225.971 158.924Z" stroke="#C1B9F1"/>
<path d="M213.555 158.596C213.259 158.588 213.013 158.822 213.006 159.116C212.998 159.41 213.231 159.656 213.526 159.664C213.822 159.672 214.068 159.439 214.075 159.144C214.083 158.85 213.85 158.604 213.555 158.596Z" stroke="#C1B9F1"/>
<path d="M201.139 158.268C200.843 158.261 200.597 158.494 200.59 158.788C200.582 159.083 200.815 159.328 201.11 159.336C201.406 159.344 201.652 159.111 201.659 158.816C201.667 158.522 201.434 158.276 201.139 158.268Z" stroke="#C1B9F1"/>
<path d="M188.723 157.94C188.427 157.932 188.181 158.165 188.174 158.46C188.166 158.754 188.399 159 188.694 159.008C188.99 159.016 189.236 158.783 189.243 158.488C189.251 158.194 189.018 157.948 188.723 157.94Z" stroke="#C1B9F1"/>
<path d="M176.307 157.612C176.011 157.604 175.765 157.838 175.758 158.132C175.75 158.426 175.983 158.672 176.278 158.68C176.574 158.688 176.82 158.455 176.827 158.16C176.835 157.866 176.602 157.62 176.307 157.612Z" stroke="#C1B9F1"/>
<path d="M163.891 157.284C163.595 157.276 163.349 157.509 163.342 157.804C163.334 158.098 163.567 158.344 163.862 158.352C164.158 158.36 164.404 158.127 164.411 157.832C164.419 157.538 164.186 157.292 163.891 157.284Z" stroke="#C1B9F1"/>
<path d="M151.475 156.956C151.179 156.948 150.933 157.182 150.926 157.476C150.918 157.77 151.151 158.016 151.446 158.024C151.742 158.032 151.988 157.799 151.995 157.504C152.003 157.21 151.77 156.964 151.475 156.956Z" stroke="#C1B9F1"/>
<path d="M139.059 156.628C138.763 156.62 138.517 156.853 138.51 157.148C138.502 157.442 138.735 157.688 139.03 157.696C139.326 157.704 139.572 157.47 139.579 157.176C139.587 156.882 139.354 156.636 139.059 156.628Z" stroke="#C1B9F1"/>
<path d="M126.643 156.3C126.347 156.292 126.101 156.525 126.094 156.82C126.086 157.114 126.318 157.36 126.614 157.368C126.91 157.376 127.155 157.143 127.163 156.848C127.171 156.554 126.938 156.308 126.643 156.3Z" stroke="#C1B9F1"/>
<path d="M114.226 155.972C113.93 155.964 113.685 156.197 113.677 156.492C113.669 156.786 113.902 157.032 114.198 157.04C114.494 157.048 114.739 156.814 114.747 156.52C114.755 156.226 114.522 155.98 114.226 155.972Z" stroke="#C1B9F1"/>
<path d="M101.81 155.644C101.514 155.636 101.269 155.869 101.261 156.164C101.253 156.458 101.486 156.704 101.782 156.712C102.078 156.72 102.323 156.487 102.331 156.192C102.339 155.898 102.106 155.652 101.81 155.644Z" stroke="#C1B9F1"/>
<path d="M221.832 158.815C221.536 158.807 221.291 159.04 221.283 159.335C221.275 159.629 221.508 159.875 221.804 159.883C222.1 159.891 222.345 159.657 222.353 159.363C222.361 159.069 222.128 158.823 221.832 158.815Z" stroke="#C1B9F1"/>
<path d="M209.416 158.487C209.12 158.479 208.875 158.712 208.867 159.007C208.859 159.301 209.092 159.547 209.388 159.555C209.684 159.562 209.929 159.329 209.937 159.035C209.945 158.74 209.712 158.495 209.416 158.487Z" stroke="#C1B9F1"/>
<path d="M197 158.159C196.704 158.151 196.459 158.384 196.451 158.679C196.443 158.973 196.676 159.219 196.972 159.227C197.268 159.235 197.513 159.001 197.521 158.707C197.528 158.413 197.296 158.167 197 158.159Z" stroke="#C1B9F1"/>
<path d="M184.584 157.831C184.288 157.823 184.043 158.056 184.035 158.351C184.027 158.645 184.26 158.891 184.556 158.899C184.852 158.907 185.097 158.674 185.105 158.379C185.112 158.085 184.88 157.839 184.584 157.831Z" stroke="#C1B9F1"/>
<path d="M172.168 157.503C171.872 157.495 171.627 157.729 171.619 158.023C171.611 158.317 171.844 158.563 172.14 158.571C172.436 158.579 172.681 158.346 172.689 158.051C172.696 157.757 172.464 157.511 172.168 157.503Z" stroke="#C1B9F1"/>
<path d="M159.752 157.175C159.456 157.167 159.211 157.4 159.203 157.695C159.195 157.989 159.428 158.235 159.724 158.243C160.019 158.251 160.265 158.017 160.273 157.723C160.28 157.429 160.048 157.183 159.752 157.175Z" stroke="#C1B9F1"/>
<path d="M147.336 156.847C147.04 156.839 146.795 157.072 146.787 157.367C146.779 157.661 147.012 157.907 147.308 157.915C147.603 157.922 147.849 157.689 147.857 157.395C147.864 157.1 147.632 156.855 147.336 156.847Z" stroke="#C1B9F1"/>
<path d="M134.919 156.519C134.624 156.511 134.378 156.744 134.37 157.038C134.363 157.333 134.595 157.579 134.891 157.586C135.187 157.594 135.432 157.361 135.44 157.067C135.448 156.772 135.215 156.526 134.919 156.519Z" stroke="#C1B9F1"/>
<path d="M122.503 156.191C122.208 156.183 121.962 156.416 121.954 156.711C121.947 157.005 122.179 157.251 122.475 157.259C122.771 157.266 123.016 157.033 123.024 156.739C123.032 156.444 122.799 156.199 122.503 156.191Z" stroke="#C1B9F1"/>
<path d="M110.087 155.863C109.792 155.855 109.546 156.088 109.538 156.382C109.531 156.677 109.763 156.923 110.059 156.93C110.355 156.938 110.6 156.705 110.608 156.411C110.616 156.116 110.383 155.87 110.087 155.863Z" stroke="#C1B9F1"/>
<path d="M97.6714 155.535C97.3756 155.527 97.1302 155.76 97.1224 156.054C97.1146 156.349 97.3473 156.595 97.6431 156.602C97.9389 156.61 98.1843 156.377 98.1921 156.083C98.1999 155.788 97.9672 155.542 97.6714 155.535Z" stroke="#C1B9F1"/>
<path d="M219.763 155.259C219.467 155.251 219.222 155.484 219.214 155.778C219.206 156.073 219.439 156.319 219.735 156.326C220.031 156.334 220.276 156.101 220.284 155.807C220.292 155.512 220.059 155.266 219.763 155.259Z" stroke="#C1B9F1"/>
<path d="M207.347 154.93C207.051 154.923 206.806 155.156 206.798 155.45C206.79 155.745 207.023 155.99 207.319 155.998C207.615 156.006 207.86 155.773 207.868 155.478C207.876 155.184 207.643 154.938 207.347 154.93Z" stroke="#C1B9F1"/>
<path d="M194.931 154.603C194.635 154.595 194.39 154.828 194.382 155.122C194.374 155.417 194.607 155.663 194.903 155.67C195.199 155.678 195.444 155.445 195.452 155.151C195.46 154.856 195.227 154.61 194.931 154.603Z" stroke="#C1B9F1"/>
<path d="M182.515 154.274C182.219 154.267 181.974 154.5 181.966 154.794C181.958 155.089 182.191 155.334 182.487 155.342C182.783 155.35 183.028 155.117 183.036 154.822C183.044 154.528 182.811 154.282 182.515 154.274Z" stroke="#C1B9F1"/>
<path d="M170.099 153.945C169.803 153.938 169.558 154.171 169.55 154.465C169.542 154.76 169.775 155.005 170.071 155.013C170.367 155.021 170.612 154.788 170.62 154.493C170.627 154.199 170.395 153.953 170.099 153.945Z" stroke="#C1B9F1"/>
<path d="M157.683 153.618C157.387 153.61 157.141 153.844 157.134 154.138C157.126 154.433 157.359 154.678 157.654 154.686C157.95 154.694 158.196 154.461 158.203 154.166C158.211 153.872 157.978 153.626 157.683 153.618Z" stroke="#C1B9F1"/>
<path d="M145.267 153.29C144.971 153.282 144.725 153.515 144.718 153.81C144.71 154.104 144.943 154.35 145.238 154.358C145.534 154.366 145.78 154.133 145.787 153.838C145.795 153.544 145.562 153.298 145.267 153.29Z" stroke="#C1B9F1"/>
<path d="M132.851 152.962C132.555 152.954 132.309 153.188 132.302 153.482C132.294 153.776 132.527 154.022 132.822 154.03C133.118 154.038 133.363 153.805 133.371 153.51C133.379 153.216 133.146 152.97 132.851 152.962Z" stroke="#C1B9F1"/>
<path d="M120.435 152.634C120.139 152.626 119.893 152.859 119.886 153.154C119.878 153.448 120.11 153.694 120.406 153.702C120.702 153.71 120.947 153.477 120.955 153.182C120.963 152.888 120.73 152.642 120.435 152.634Z" stroke="#C1B9F1"/>
<path d="M108.019 152.306C107.723 152.298 107.477 152.531 107.47 152.826C107.462 153.12 107.694 153.366 107.99 153.374C108.286 153.382 108.531 153.149 108.539 152.854C108.547 152.56 108.314 152.314 108.019 152.306Z" stroke="#C1B9F1"/>
<path d="M228.041 155.477C227.745 155.47 227.499 155.703 227.492 155.997C227.484 156.292 227.716 156.537 228.012 156.545C228.308 156.553 228.553 156.32 228.561 156.025C228.569 155.731 228.336 155.485 228.041 155.477Z" stroke="#C1B9F1"/>
<path d="M215.624 155.149C215.329 155.141 215.083 155.375 215.076 155.669C215.068 155.963 215.3 156.209 215.596 156.217C215.892 156.225 216.137 155.992 216.145 155.697C216.153 155.403 215.92 155.157 215.624 155.149Z" stroke="#C1B9F1"/>
<path d="M203.208 154.821C202.913 154.814 202.667 155.047 202.66 155.341C202.652 155.636 202.884 155.881 203.18 155.889C203.476 155.897 203.721 155.664 203.729 155.369C203.737 155.075 203.504 154.829 203.208 154.821Z" stroke="#C1B9F1"/>
<path d="M190.792 154.493C190.496 154.485 190.251 154.718 190.243 155.013C190.235 155.307 190.468 155.553 190.764 155.561C191.06 155.569 191.305 155.336 191.313 155.041C191.32 154.747 191.088 154.501 190.792 154.493Z" stroke="#C1B9F1"/>
<path d="M178.376 154.165C178.081 154.157 177.835 154.391 177.827 154.685C177.82 154.98 178.052 155.225 178.348 155.233C178.644 155.241 178.889 155.008 178.897 154.713C178.905 154.419 178.672 154.173 178.376 154.165Z" stroke="#C1B9F1"/>
<path d="M165.96 153.837C165.665 153.829 165.419 154.062 165.411 154.357C165.404 154.651 165.636 154.897 165.932 154.905C166.228 154.913 166.473 154.68 166.481 154.385C166.489 154.091 166.256 153.845 165.96 153.837Z" stroke="#C1B9F1"/>
<path d="M153.544 153.509C153.248 153.501 153.003 153.735 152.995 154.029C152.987 154.323 153.22 154.569 153.516 154.577C153.811 154.585 154.057 154.352 154.065 154.057C154.072 153.763 153.84 153.517 153.544 153.509Z" stroke="#C1B9F1"/>
<path d="M141.128 153.181C140.832 153.173 140.587 153.406 140.579 153.701C140.571 153.995 140.804 154.241 141.1 154.249C141.395 154.257 141.641 154.024 141.649 153.729C141.656 153.435 141.424 153.189 141.128 153.181Z" stroke="#C1B9F1"/>
<path d="M128.712 152.853C128.416 152.845 128.171 153.078 128.163 153.373C128.155 153.667 128.388 153.913 128.684 153.921C128.979 153.929 129.225 153.696 129.233 153.401C129.24 153.107 129.008 152.861 128.712 152.853Z" stroke="#C1B9F1"/>
<path d="M116.296 152.525C116 152.517 115.755 152.75 115.747 153.045C115.739 153.339 115.972 153.585 116.268 153.593C116.563 153.601 116.809 153.367 116.817 153.073C116.824 152.779 116.592 152.533 116.296 152.525Z" stroke="#C1B9F1"/>
<path d="M103.88 152.197C103.584 152.189 103.339 152.422 103.331 152.717C103.323 153.011 103.556 153.257 103.852 153.265C104.147 153.273 104.393 153.04 104.401 152.745C104.408 152.451 104.176 152.205 103.88 152.197Z" stroke="#C1B9F1"/>
<path d="M223.902 155.368C223.606 155.36 223.361 155.593 223.353 155.888C223.345 156.182 223.578 156.428 223.874 156.436C224.169 156.444 224.415 156.211 224.423 155.916C224.43 155.622 224.198 155.376 223.902 155.368Z" stroke="#C1B9F1"/>
<path d="M211.486 155.04C211.19 155.032 210.945 155.265 210.937 155.56C210.929 155.854 211.162 156.1 211.458 156.108C211.753 156.115 211.999 155.882 212.007 155.588C212.014 155.293 211.782 155.048 211.486 155.04Z" stroke="#C1B9F1"/>
<path d="M199.07 154.712C198.774 154.704 198.529 154.937 198.521 155.232C198.513 155.526 198.746 155.772 199.042 155.78C199.337 155.788 199.583 155.554 199.591 155.26C199.598 154.966 199.366 154.72 199.07 154.712Z" stroke="#C1B9F1"/>
<path d="M186.653 154.384C186.358 154.376 186.112 154.609 186.104 154.904C186.097 155.198 186.329 155.444 186.625 155.452C186.921 155.46 187.166 155.227 187.174 154.932C187.182 154.638 186.949 154.392 186.653 154.384Z" stroke="#C1B9F1"/>
<path d="M174.237 154.056C173.941 154.048 173.696 154.282 173.688 154.576C173.681 154.87 173.913 155.116 174.209 155.124C174.505 155.132 174.75 154.899 174.758 154.604C174.766 154.31 174.533 154.064 174.237 154.056Z" stroke="#C1B9F1"/>
<path d="M161.822 153.728C161.526 153.72 161.281 153.953 161.273 154.248C161.265 154.542 161.498 154.788 161.793 154.796C162.089 154.804 162.335 154.571 162.342 154.276C162.35 153.982 162.118 153.736 161.822 153.728Z" stroke="#C1B9F1"/>
<path d="M149.406 153.4C149.11 153.392 148.865 153.625 148.857 153.92C148.849 154.214 149.082 154.46 149.377 154.468C149.673 154.475 149.919 154.242 149.926 153.948C149.934 153.653 149.702 153.408 149.406 153.4Z" stroke="#C1B9F1"/>
<path d="M136.989 153.072C136.693 153.064 136.448 153.297 136.44 153.591C136.433 153.886 136.665 154.132 136.961 154.139C137.257 154.147 137.502 153.914 137.51 153.62C137.518 153.325 137.285 153.079 136.989 153.072Z" stroke="#C1B9F1"/>
<path d="M124.573 152.744C124.277 152.736 124.032 152.969 124.024 153.264C124.016 153.558 124.249 153.804 124.545 153.812C124.841 153.819 125.086 153.586 125.094 153.292C125.102 152.997 124.869 152.752 124.573 152.744Z" stroke="#C1B9F1"/>
<path d="M112.157 152.416C111.861 152.408 111.616 152.641 111.608 152.935C111.6 153.23 111.833 153.476 112.129 153.483C112.425 153.491 112.67 153.258 112.678 152.964C112.686 152.669 112.453 152.423 112.157 152.416Z" stroke="#C1B9F1"/>
<path d="M99.7412 152.088C99.4454 152.08 99.2 152.313 99.1922 152.607C99.1845 152.902 99.4171 153.148 99.7129 153.155C100.009 153.163 100.254 152.93 100.262 152.636C100.27 152.341 100.037 152.095 99.7412 152.088Z" stroke="#C1B9F1"/>
<path d="M217.693 151.812C217.398 151.804 217.152 152.037 217.144 152.331C217.137 152.626 217.369 152.872 217.665 152.879C217.961 152.887 218.206 152.654 218.214 152.36C218.222 152.065 217.989 151.819 217.693 151.812Z" stroke="#C1B9F1"/>
<path d="M205.277 151.483C204.982 151.476 204.736 151.709 204.728 152.003C204.721 152.298 204.953 152.543 205.249 152.551C205.545 152.559 205.79 152.326 205.798 152.031C205.806 151.737 205.573 151.491 205.277 151.483Z" stroke="#C1B9F1"/>
<path d="M192.861 151.156C192.565 151.148 192.32 151.381 192.312 151.675C192.305 151.97 192.537 152.216 192.833 152.223C193.129 152.231 193.374 151.998 193.382 151.704C193.39 151.409 193.157 151.163 192.861 151.156Z" stroke="#C1B9F1"/>
<path d="M180.445 150.827C180.149 150.82 179.904 151.053 179.896 151.347C179.889 151.642 180.121 151.887 180.417 151.895C180.713 151.903 180.958 151.67 180.966 151.375C180.974 151.081 180.741 150.835 180.445 150.827Z" stroke="#C1B9F1"/>
<path d="M168.029 150.498C167.733 150.491 167.488 150.724 167.48 151.018C167.472 151.313 167.705 151.558 168.001 151.566C168.297 151.574 168.542 151.341 168.55 151.046C168.557 150.752 168.325 150.506 168.029 150.498Z" stroke="#C1B9F1"/>
<path d="M155.613 150.171C155.317 150.163 155.072 150.397 155.064 150.691C155.056 150.986 155.289 151.231 155.585 151.239C155.88 151.247 156.126 151.014 156.133 150.719C156.141 150.425 155.909 150.179 155.613 150.171Z" stroke="#C1B9F1"/>
<path d="M143.197 149.843C142.901 149.835 142.656 150.068 142.648 150.363C142.64 150.657 142.873 150.903 143.168 150.911C143.464 150.919 143.71 150.686 143.717 150.391C143.725 150.097 143.493 149.851 143.197 149.843Z" stroke="#C1B9F1"/>
<path d="M130.781 149.515C130.485 149.507 130.24 149.741 130.232 150.035C130.224 150.329 130.457 150.575 130.752 150.583C131.048 150.591 131.294 150.358 131.301 150.063C131.309 149.769 131.077 149.523 130.781 149.515Z" stroke="#C1B9F1"/>
<path d="M118.365 149.187C118.069 149.179 117.824 149.412 117.816 149.707C117.808 150.001 118.041 150.247 118.336 150.255C118.632 150.263 118.878 150.03 118.885 149.735C118.893 149.441 118.661 149.195 118.365 149.187Z" stroke="#C1B9F1"/>
<path d="M105.949 148.859C105.653 148.851 105.408 149.084 105.4 149.379C105.392 149.673 105.625 149.919 105.92 149.927C106.216 149.935 106.462 149.702 106.469 149.407C106.477 149.113 106.245 148.867 105.949 148.859Z" stroke="#C1B9F1"/>
<path d="M225.971 152.03C225.675 152.023 225.43 152.256 225.422 152.55C225.414 152.845 225.647 153.09 225.942 153.098C226.238 153.106 226.484 152.873 226.491 152.578C226.499 152.284 226.267 152.038 225.971 152.03Z" stroke="#C1B9F1"/>
<path d="M213.555 151.702C213.259 151.694 213.013 151.928 213.006 152.222C212.998 152.516 213.231 152.762 213.526 152.77C213.822 152.778 214.068 152.545 214.075 152.25C214.083 151.956 213.85 151.71 213.555 151.702Z" stroke="#C1B9F1"/>
<path d="M201.139 151.374C200.843 151.367 200.597 151.6 200.59 151.894C200.582 152.189 200.815 152.434 201.11 152.442C201.406 152.45 201.652 152.217 201.659 151.922C201.667 151.628 201.434 151.382 201.139 151.374Z" stroke="#C1B9F1"/>
<path d="M188.722 151.046C188.426 151.038 188.181 151.272 188.173 151.566C188.165 151.86 188.398 152.106 188.694 152.114C188.99 152.122 189.235 151.889 189.243 151.594C189.251 151.3 189.018 151.054 188.722 151.046Z" stroke="#C1B9F1"/>
<path d="M176.307 150.718C176.011 150.711 175.765 150.944 175.758 151.238C175.75 151.533 175.983 151.778 176.278 151.786C176.574 151.794 176.82 151.561 176.827 151.266C176.835 150.972 176.602 150.726 176.307 150.718Z" stroke="#C1B9F1"/>
<path d="M163.891 150.39C163.595 150.382 163.349 150.615 163.342 150.91C163.334 151.204 163.567 151.45 163.862 151.458C164.158 151.466 164.404 151.233 164.411 150.938C164.419 150.644 164.186 150.398 163.891 150.39Z" stroke="#C1B9F1"/>
<path d="M151.474 150.062C151.178 150.054 150.933 150.288 150.925 150.582C150.917 150.876 151.15 151.122 151.446 151.13C151.742 151.138 151.987 150.905 151.995 150.61C152.003 150.316 151.77 150.07 151.474 150.062Z" stroke="#C1B9F1"/>
<path d="M139.058 149.734C138.762 149.726 138.517 149.959 138.509 150.254C138.501 150.548 138.734 150.794 139.03 150.802C139.326 150.81 139.571 150.577 139.579 150.282C139.587 149.988 139.354 149.742 139.058 149.734Z" stroke="#C1B9F1"/>
<path d="M126.642 149.406C126.346 149.398 126.101 149.631 126.093 149.926C126.085 150.22 126.318 150.466 126.614 150.474C126.91 150.482 127.155 150.249 127.163 149.954C127.171 149.66 126.938 149.414 126.642 149.406Z" stroke="#C1B9F1"/>
<path d="M114.226 149.078C113.93 149.07 113.685 149.303 113.677 149.598C113.669 149.892 113.902 150.138 114.198 150.146C114.494 150.154 114.739 149.92 114.747 149.626C114.755 149.332 114.522 149.086 114.226 149.078Z" stroke="#C1B9F1"/>
<path d="M101.81 148.75C101.514 148.742 101.269 148.975 101.261 149.27C101.253 149.564 101.486 149.81 101.782 149.818C102.078 149.826 102.323 149.593 102.331 149.298C102.339 149.004 102.106 148.758 101.81 148.75Z" stroke="#C1B9F1"/>
<path d="M221.832 151.921C221.536 151.913 221.291 152.146 221.283 152.441C221.275 152.735 221.508 152.981 221.804 152.989C222.1 152.997 222.345 152.764 222.353 152.469C222.361 152.175 222.128 151.929 221.832 151.921Z" stroke="#C1B9F1"/>
<path d="M209.416 151.593C209.12 151.585 208.875 151.818 208.867 152.113C208.859 152.407 209.092 152.653 209.388 152.661C209.684 152.668 209.929 152.435 209.937 152.141C209.945 151.846 209.712 151.601 209.416 151.593Z" stroke="#C1B9F1"/>
<path d="M197 151.265C196.704 151.257 196.459 151.49 196.451 151.785C196.443 152.079 196.676 152.325 196.972 152.333C197.268 152.341 197.513 152.107 197.521 151.813C197.528 151.519 197.296 151.273 197 151.265Z" stroke="#C1B9F1"/>
<path d="M184.584 150.937C184.288 150.929 184.043 151.162 184.035 151.457C184.027 151.751 184.26 151.997 184.556 152.005C184.852 152.013 185.097 151.78 185.105 151.485C185.112 151.191 184.88 150.945 184.584 150.937Z" stroke="#C1B9F1"/>
<path d="M172.167 150.609C171.872 150.601 171.626 150.835 171.618 151.129C171.611 151.423 171.843 151.669 172.139 151.677C172.435 151.685 172.68 151.452 172.688 151.157C172.696 150.863 172.463 150.617 172.167 150.609Z" stroke="#C1B9F1"/>
<path d="M159.752 150.281C159.456 150.273 159.211 150.506 159.203 150.801C159.195 151.095 159.428 151.341 159.724 151.349C160.019 151.357 160.265 151.124 160.273 150.829C160.28 150.535 160.048 150.289 159.752 150.281Z" stroke="#C1B9F1"/>
<path d="M147.335 149.953C147.04 149.945 146.794 150.178 146.786 150.473C146.779 150.767 147.011 151.013 147.307 151.021C147.603 151.028 147.848 150.795 147.856 150.501C147.864 150.206 147.631 149.961 147.335 149.953Z" stroke="#C1B9F1"/>
<path d="M134.919 149.625C134.624 149.617 134.378 149.85 134.37 150.144C134.363 150.439 134.595 150.685 134.891 150.692C135.187 150.7 135.432 150.467 135.44 150.173C135.448 149.878 135.215 149.632 134.919 149.625Z" stroke="#C1B9F1"/>
<path d="M122.503 149.297C122.208 149.289 121.962 149.522 121.954 149.817C121.947 150.111 122.179 150.357 122.475 150.365C122.771 150.372 123.016 150.139 123.024 149.845C123.032 149.55 122.799 149.305 122.503 149.297Z" stroke="#C1B9F1"/>
<path d="M110.087 148.969C109.792 148.961 109.546 149.194 109.538 149.488C109.531 149.783 109.763 150.029 110.059 150.036C110.355 150.044 110.6 149.811 110.608 149.517C110.616 149.222 110.383 148.976 110.087 148.969Z" stroke="#C1B9F1"/>
<path d="M97.6714 148.641C97.3756 148.633 97.1302 148.866 97.1224 149.16C97.1146 149.455 97.3473 149.701 97.6431 149.708C97.9389 149.716 98.1843 149.483 98.1921 149.189C98.1999 148.894 97.9672 148.649 97.6714 148.641Z" stroke="#C1B9F1"/>
<path d="M239.437 153.045C235.626 153.045 232.537 156.132 232.537 159.939L232.537 174.417C232.537 178.224 235.626 181.311 239.437 181.311C243.248 181.311 246.337 178.224 246.337 174.417L246.337 170.625" stroke="#C1B9F1"/>
<path d="M219.082 127.348C218.309 127.348 217.633 127.558 217.163 127.87C216.691 128.185 216.477 128.565 216.477 128.917C216.477 129.268 216.691 129.648 217.163 129.963C217.633 130.275 218.309 130.485 219.082 130.485C219.855 130.485 220.531 130.275 221 129.963C221.473 129.648 221.687 129.268 221.687 128.917C221.687 128.565 221.473 128.185 221 127.87C220.531 127.558 219.855 127.348 219.082 127.348Z" stroke="#C1B9F1"/>
<path d="M103.848 125.97C103.075 125.97 102.399 126.179 101.93 126.492C101.457 126.806 101.243 127.186 101.243 127.538C101.243 127.89 101.457 128.269 101.93 128.584C102.399 128.897 103.075 129.106 103.848 129.106C104.621 129.106 105.297 128.897 105.766 128.584C106.239 128.269 106.453 127.89 106.453 127.538C106.453 127.186 106.239 126.806 105.766 126.492C105.297 126.179 104.621 125.97 103.848 125.97Z" stroke="#C1B9F1"/>
<path d="M86.5975 172.848C85.8249 172.848 85.1481 173.058 84.6791 173.37C84.2065 173.685 83.9924 174.065 83.9924 174.417C83.9924 174.768 84.2065 175.148 84.6791 175.463C85.1481 175.775 85.8249 175.985 86.5975 175.985C87.3701 175.985 88.047 175.775 88.516 175.463C88.9886 175.148 89.2026 174.768 89.2026 174.417C89.2026 174.065 88.9886 173.685 88.516 173.37C88.047 173.058 87.3701 172.848 86.5975 172.848Z" stroke="#C1B9F1"/>
<path d="M209.421 139.947L133.519 137.534" stroke="#C1B9F1"/>
<path d="M130.759 137.534L116.958 136.845" stroke="#C1B9F1"/>
<path d="M239.783 176.985C239.01 176.985 238.333 177.194 237.864 177.507C237.392 177.822 237.177 178.201 237.177 178.553C237.177 178.905 237.392 179.285 237.864 179.599C238.333 179.912 239.01 180.121 239.783 180.121C240.555 180.121 241.232 179.912 241.701 179.599C242.174 179.285 242.388 178.905 242.388 178.553C242.388 178.201 242.174 177.822 241.701 177.507C241.232 177.194 240.555 176.985 239.783 176.985Z" stroke="#C1B9F1"/>
<circle cx="295" cy="91" r="18" fill="white"/>
<path d="M293.616 93.912C293.488 93.912 293.376 93.872 293.28 93.792C293.184 93.696 293.136 93.584 293.136 93.456V92.904C293.248 92.232 293.496 91.632 293.88 91.104C294.28 90.576 294.824 89.976 295.512 89.304C296.024 88.792 296.408 88.376 296.664 88.056C296.92 87.72 297.056 87.384 297.072 87.048C297.12 86.552 296.952 86.16 296.568 85.872C296.2 85.568 295.752 85.416 295.224 85.416C293.976 85.416 293.208 86.016 292.92 87.216C292.792 87.6 292.544 87.792 292.176 87.792H289.248C289.072 87.792 288.928 87.736 288.816 87.624C288.72 87.496 288.672 87.336 288.672 87.144C288.704 86.264 288.984 85.432 289.512 84.648C290.04 83.848 290.816 83.2 291.84 82.704C292.864 82.208 294.088 81.96 295.512 81.96C296.968 81.96 298.152 82.192 299.064 82.656C299.976 83.104 300.624 83.664 301.008 84.336C301.408 84.992 301.608 85.664 301.608 86.352C301.608 87.136 301.424 87.824 301.056 88.416C300.704 89.008 300.176 89.688 299.472 90.456C299.04 90.92 298.696 91.312 298.44 91.632C298.2 91.952 298.016 92.288 297.888 92.64C297.84 92.784 297.784 93 297.72 93.288C297.592 93.512 297.48 93.672 297.384 93.768C297.288 93.864 297.152 93.912 296.976 93.912H293.616ZM293.664 99C293.488 99 293.344 98.944 293.232 98.832C293.12 98.72 293.064 98.576 293.064 98.4V95.664C293.064 95.488 293.12 95.344 293.232 95.232C293.344 95.12 293.488 95.064 293.664 95.064H296.736C296.912 95.064 297.056 95.12 297.168 95.232C297.296 95.344 297.36 95.488 297.36 95.664V98.4C297.36 98.576 297.296 98.72 297.168 98.832C297.056 98.944 296.912 99 296.736 99H293.664Z" fill="#6455BF"/>
<circle cx="19" cy="162" r="18" fill="white"/>
<path d="M17.616 164.912C17.488 164.912 17.376 164.872 17.28 164.792C17.184 164.696 17.136 164.584 17.136 164.456V163.904C17.248 163.232 17.496 162.632 17.88 162.104C18.28 161.576 18.824 160.976 19.512 160.304C20.024 159.792 20.408 159.376 20.664 159.056C20.92 158.72 21.056 158.384 21.072 158.048C21.12 157.552 20.952 157.16 20.568 156.872C20.2 156.568 19.752 156.416 19.224 156.416C17.976 156.416 17.208 157.016 16.92 158.216C16.792 158.6 16.544 158.792 16.176 158.792H13.248C13.072 158.792 12.928 158.736 12.816 158.624C12.72 158.496 12.672 158.336 12.672 158.144C12.704 157.264 12.984 156.432 13.512 155.648C14.04 154.848 14.816 154.2 15.84 153.704C16.864 153.208 18.088 152.96 19.512 152.96C20.968 152.96 22.152 153.192 23.064 153.656C23.976 154.104 24.624 154.664 25.008 155.336C25.408 155.992 25.608 156.664 25.608 157.352C25.608 158.136 25.424 158.824 25.056 159.416C24.704 160.008 24.176 160.688 23.472 161.456C23.04 161.92 22.696 162.312 22.44 162.632C22.2 162.952 22.016 163.288 21.888 163.64C21.84 163.784 21.784 164 21.72 164.288C21.592 164.512 21.48 164.672 21.384 164.768C21.288 164.864 21.152 164.912 20.976 164.912H17.616ZM17.664 170C17.488 170 17.344 169.944 17.232 169.832C17.12 169.72 17.064 169.576 17.064 169.4V166.664C17.064 166.488 17.12 166.344 17.232 166.232C17.344 166.12 17.488 166.064 17.664 166.064H20.736C20.912 166.064 21.056 166.12 21.168 166.232C21.296 166.344 21.36 166.488 21.36 166.664V169.4C21.36 169.576 21.296 169.72 21.168 169.832C21.056 169.944 20.912 170 20.736 170H17.664Z" fill="#6455BF"/>
</svg>
